<svg width="512" height="512" fill="none" xmlns="http://www.w3.org/2000/svg"><mask id="a" fill="#fff"><path d="M0 129h512v303c0 44.183-35.817 80-80 80H80c-44.183 0-80-35.817-80-80V129z"/></mask><path d="M0 129h512v303c0 44.183-35.817 80-80 80H80c-44.183 0-80-35.817-80-80V129z" fill="#fff"/><path d="M0 129h512H0zm524 303c0 50.81-41.19 92-92 92H80c-50.81 0-92-41.19-92-92h24c0 37.555 30.445 68 68 68h352c37.555 0 68-30.445 68-68h24zM80 524c-50.81 0-92-41.19-92-92V129h24v303c0 37.555 30.445 68 68 68v24zm444-395v303c0 50.81-41.19 92-92 92v-24c37.555 0 68-30.445 68-68V129h24z" fill="#EBF1F4" mask="url(#a)"/><path d="M512 129H0V80C0 35.817 35.817 0 80 0h352c44.183 0 80 35.817 80 80v49z" fill="#EBF1F4"/><path d="M95.332 64.267H79.266c-19.872.733-19.874 29.266 0 30h16.066c19.872-.734 19.874-29.266 0-30zm72.302 0h-16.067c-19.872.733-19.874 29.266 0 30h16.067c19.871-.734 19.874-29.266 0-30zm72.301 0h-16.067c-19.872.733-19.874 29.266 0 30h16.067c19.871-.734 19.874-29.266 0-30z" fill="#C9D4DE"/><path d="M242.505 323.79c7.441-7.438 19.551-7.438 26.992 0 5.859 5.857 15.358 5.853 21.213-.006 5.856-5.859 5.854-15.357-.006-21.213-19.135-19.125-50.271-19.125-69.406 0-13.535 14.568 6.628 34.749 21.207 21.219zM368.467 275c8.284 0 15-6.716 15-15v-16.067c-.733-19.872-29.266-19.874-30 0V260c0 8.284 6.716 15 15 15zm-224.934 0c8.284 0 15-6.716 15-15v-16.067c-.733-19.872-29.266-19.874-30 0V260c0 8.284 6.716 15 15 15z" fill="#7198BC"/></svg>