<svg viewBox="0 0 200 65" fill="none" xmlns="http://www.w3.org/2000/svg"><path fill-rule="evenodd" clip-rule="evenodd" d="M49.55 5.668L23.157 32.062l26.395 26.395 26.394-26.395L49.551 5.668zM17.489 32.062l32.063 32.063 32.062-32.063L49.55 0 17.489 32.062z" fill="#fff"/><path fill-rule="evenodd" clip-rule="evenodd" d="M22.098 15.632l-16.43 16.43 16.43 16.43 16.43-16.43-16.43-16.43zM0 32.062L22.098 54.16l22.098-22.098L22.098 9.964 0 32.062zm81.613-16.43l-16.43 16.43 16.43 16.43 16.43-16.43-16.43-16.43zm-22.098 16.43L81.613 54.16l22.098-22.098L81.613 9.964 59.515 32.062z" fill="#fff"/><path d="M125.693 23.486h-5.719v14.838h-3.451V23.486h-5.718v-3.048h14.888v3.048z" fill="#fff"/><path d="M132.665 28.046c-1.024.017-1.939.218-2.745.604-.806.37-1.386.932-1.739 1.688v7.986h-3.375v-13.2h3.098v2.82c.235-.453.513-.856.832-1.208a6.14 6.14 0 011.032-.958c.37-.268.739-.47 1.109-.604a3.04 3.04 0 011.108-.227h.403c.101 0 .194.009.277.025v3.074zm5.913 10.53c-1.36 0-2.393-.437-3.098-1.31-.706-.874-1.058-2.167-1.058-3.88v-8.263h3.375v7.533c0 2.032.731 3.048 2.192 3.048.655 0 1.285-.193 1.889-.58.622-.403 1.126-1.007 1.512-1.813v-8.188h3.376v9.321c0 .353.058.605.176.756.134.151.344.235.63.252v2.872a7.056 7.056 0 01-1.461.15c-.605 0-1.1-.133-1.487-.402-.369-.286-.587-.672-.655-1.159l-.075-1.058c-.588.907-1.344 1.587-2.267 2.04-.924.454-1.94.68-3.049.68zm16.53 0c-1.108 0-2.192-.177-3.25-.53-1.058-.352-1.965-.856-2.72-1.51l1.259-2.117c.806.571 1.587 1.008 2.343 1.31a6.583 6.583 0 002.292.428c.672 0 1.201-.126 1.588-.378.386-.252.579-.613.579-1.083s-.227-.814-.68-1.033c-.454-.218-1.193-.47-2.217-.755a29.713 29.713 0 01-2.192-.68c-.604-.219-1.091-.462-1.461-.731-.369-.286-.638-.605-.806-.957-.168-.37-.252-.806-.252-1.31 0-.672.126-1.277.378-1.814a3.956 3.956 0 011.108-1.36 4.97 4.97 0 011.638-.882 6.827 6.827 0 012.066-.302c.99 0 1.914.142 2.771.428a6.762 6.762 0 012.393 1.385l-1.361 2.04c-.671-.503-1.326-.873-1.964-1.108a5.24 5.24 0 00-1.865-.352c-.571 0-1.049.117-1.436.352-.386.235-.579.613-.579 1.134 0 .235.042.428.126.58.101.15.252.285.453.402.202.118.462.236.781.353.336.1.748.21 1.235.328.907.235 1.679.47 2.317.705.655.235 1.184.504 1.587.806.42.302.723.655.907 1.058.202.386.303.857.303 1.41 0 1.294-.479 2.319-1.436 3.074-.958.74-2.259 1.109-3.905 1.109zm15.444-.932a15.11 15.11 0 01-1.662.604 6.989 6.989 0 01-2.066.303 4.93 4.93 0 01-1.335-.177 3.167 3.167 0 01-1.084-.554 3.005 3.005 0 01-.73-1.008c-.185-.42-.277-.923-.277-1.511v-7.583h-1.738v-2.595h1.738v-4.282h3.375v4.282h2.771v2.595h-2.771v6.45c0 .47.118.805.353 1.007.252.185.554.277.907.277s.697-.059 1.033-.176c.336-.118.604-.219.806-.303l.68 2.67zm14.505-2.368v3.048h-12.419V20.438h12.192v3.048h-8.716v4.308h7.532v2.821h-7.532v4.66h8.943zm4.474-10.153l2.846 4.132.202.453.252-.453 2.821-4.131h3.477l-4.711 6.625 4.786 6.575h-3.476l-2.922-4.106-.227-.429-.202.429-2.897 4.106h-3.476l4.761-6.575-4.686-6.625h3.452zm-40.435 18.339h.519l1.04 1.75h.044l1.039-1.75h.52l-1.354 2.203v1.544h-.454v-1.544l-1.354-2.203zm4.434 3.806c-.253 0-.476-.06-.668-.181a1.23 1.23 0 01-.446-.507 1.716 1.716 0 01-.159-.761c0-.293.053-.549.159-.767.107-.218.256-.388.446-.509a1.23 1.23 0 01.668-.18c.254 0 .476.06.666.18.192.121.341.29.447.509.107.218.161.474.161.767 0 .29-.054.544-.161.76a1.21 1.21 0 01-.447.508c-.19.12-.412.18-.666.18zm0-.388a.74.74 0 00.476-.148.87.87 0 00.276-.39c.06-.161.09-.335.09-.523s-.03-.363-.09-.525a.881.881 0 00-.276-.394.734.734 0 00-.476-.15.733.733 0 00-.475.15.883.883 0 00-.277.394c-.06.162-.089.337-.089.525s.029.362.089.523c.06.161.152.291.277.39a.74.74 0 00.475.148zm3.704-.82V44.4h.432v2.81h-.432v-.475h-.029a.923.923 0 01-.307.364.888.888 0 01-.527.148.94.94 0 01-.469-.115.81.81 0 01-.322-.352 1.336 1.336 0 01-.117-.594V44.4h.432v1.756c0 .205.057.369.172.49a.584.584 0 00.443.184.734.734 0 00.327-.083.717.717 0 00.397-.686zm1.223 1.15v-2.811h.417v.424h.03a.674.674 0 01.278-.338.817.817 0 01.453-.13 4.81 4.81 0 01.227.007v.44a1.262 1.262 0 00-.1-.017.986.986 0 00-.163-.013.762.762 0 00-.366.086.63.63 0 00-.344.573v1.778h-.432zm4.589-2.811v.366h-1.457v-.366h1.457zm-1.032-.674h.432v2.68c0 .121.017.213.053.274.036.06.083.1.139.12.057.02.117.03.181.03a.775.775 0 00.19-.022l.088.388a.892.892 0 01-.322.051.87.87 0 01-.359-.079.712.712 0 01-.289-.24.693.693 0 01-.113-.406v-2.796zm1.681 3.485v-2.811h.418v.424h.029a.674.674 0 01.278-.338.817.817 0 01.454-.13 4.879 4.879 0 01.227.007v.44a1.32 1.32 0 00-.101-.017.978.978 0 00-.163-.013.768.768 0 00-.366.086.631.631 0 00-.344.573v1.778h-.432zm3.689-1.15V44.4h.432v2.81h-.432v-.475h-.029a.925.925 0 01-.308.364.888.888 0 01-.527.148.937.937 0 01-.468-.115.804.804 0 01-.322-.352 1.336 1.336 0 01-.117-.594V44.4h.431v1.756a.69.69 0 00.172.49.585.585 0 00.443.184.735.735 0 00.328-.083.717.717 0 00.397-.686zm3.213-1.032l-.387.11a.756.756 0 00-.108-.188.526.526 0 00-.191-.154.687.687 0 00-.309-.06.74.74 0 00-.43.118c-.113.078-.17.178-.17.299 0 .107.039.192.117.254.078.062.2.114.366.156l.417.102c.251.061.439.154.562.28a.656.656 0 01.185.481.718.718 0 01-.139.432.926.926 0 01-.385.3c-.164.073-.356.11-.574.11-.287 0-.524-.062-.712-.187a.827.827 0 01-.357-.545l.41-.102a.568.568 0 00.222.34.742.742 0 00.43.113c.201 0 .361-.042.479-.128.119-.086.179-.19.179-.31a.328.328 0 00-.102-.246.657.657 0 00-.315-.15l-.468-.11c-.258-.06-.447-.155-.568-.283a.689.689 0 01-.179-.485c0-.159.045-.3.134-.421a.91.91 0 01.367-.287c.157-.07.333-.105.531-.105.278 0 .497.061.655.183.16.122.273.283.34.483zm1.924-.629v.366h-1.456v-.366h1.456zm-1.032-.674h.432v2.68c0 .121.018.213.053.274.037.06.083.1.139.12.057.02.118.03.181.03a.766.766 0 00.117-.008l.074-.014.087.388a.889.889 0 01-.322.051.865.865 0 01-.358-.079.706.706 0 01-.289-.24.686.686 0 01-.114-.406v-2.796zm2.83 3.543a1.32 1.32 0 01-.701-.18 1.204 1.204 0 01-.452-.504 1.721 1.721 0 01-.157-.758c0-.288.052-.542.157-.761.106-.221.254-.393.443-.516.19-.125.412-.187.666-.187.146 0 .291.025.434.073a1.091 1.091 0 01.669.67c.07.18.105.4.105.663v.182h-2.167v-.373h1.728c0-.158-.032-.3-.096-.424a.714.714 0 00-.267-.295.746.746 0 00-.406-.108.772.772 0 00-.446.128.84.84 0 00-.288.33.968.968 0 00-.1.435v.249c0 .212.036.392.109.54a.796.796 0 00.31.335.902.902 0 00.459.113.93.93 0 00.307-.048.656.656 0 00.24-.146.673.673 0 00.156-.245l.417.117a.924.924 0 01-.222.373 1.068 1.068 0 01-.384.25 1.422 1.422 0 01-.514.087zm2.882 0a1.1 1.1 0 01-.62-.178 1.19 1.19 0 01-.421-.505 1.814 1.814 0 01-.152-.774c0-.295.05-.551.152-.768a1.18 1.18 0 01.422-.503 1.12 1.12 0 01.626-.178c.183 0 .328.03.434.092.107.06.189.128.245.205.057.075.102.138.134.186h.036v-1.383h.432v3.747h-.417v-.431h-.051a2.77 2.77 0 01-.136.194.8.8 0 01-.25.206.903.903 0 01-.434.09zm.058-.388a.71.71 0 00.44-.135.85.85 0 00.272-.38c.062-.161.094-.349.094-.56 0-.21-.031-.394-.092-.552a.799.799 0 00-.271-.37.719.719 0 00-.443-.133.726.726 0 00-.457.141.842.842 0 00-.273.379 1.524 1.524 0 00-.089.534c0 .2.03.382.091.545a.89.89 0 00.275.388.714.714 0 00.453.143zm3.53 1.383V44.4h.417v.446h.052a3.41 3.41 0 01.131-.186.775.775 0 01.246-.205.88.88 0 01.435-.092c.237 0 .445.06.626.178.18.118.321.286.423.503.101.217.151.473.151.768 0 .298-.05.556-.151.774a1.207 1.207 0 01-.421.505c-.18.119-.386.178-.621.178a.896.896 0 01-.433-.09.805.805 0 01-.251-.206 2.411 2.411 0 01-.135-.194h-.037v1.485h-.432zm.425-2.459c0 .212.031.4.093.562a.844.844 0 00.273.379c.119.09.266.135.439.135a.71.71 0 00.452-.143.872.872 0 00.274-.388c.062-.163.094-.345.094-.545 0-.198-.031-.376-.092-.534a.828.828 0 00-.273-.379.717.717 0 00-.455-.14.721.721 0 00-.443.133.799.799 0 00-.271.37 1.52 1.52 0 00-.091.55zm3.542 1.471c-.178 0-.34-.033-.485-.1a.837.837 0 01-.346-.295.834.834 0 01-.128-.468c0-.161.032-.292.096-.392a.67.67 0 01.254-.238c.106-.057.223-.1.351-.128.13-.03.259-.052.39-.07.171-.021.309-.038.415-.049a.64.64 0 00.235-.06c.05-.028.075-.077.075-.147v-.014c0-.18-.05-.321-.149-.421-.097-.1-.245-.15-.444-.15-.206 0-.368.045-.485.135a.796.796 0 00-.247.29l-.41-.147a.983.983 0 01.293-.399c.123-.096.257-.163.402-.201a1.68 1.68 0 01.432-.059c.09 0 .194.011.311.033.118.02.233.064.342.13a.771.771 0 01.277.298c.073.133.109.311.109.535v1.851h-.431v-.38h-.022a.843.843 0 01-.419.373 1.054 1.054 0 01-.416.073zm.066-.388a.856.856 0 00.432-.1.689.689 0 00.359-.595v-.395c-.019.022-.059.042-.121.06a2.077 2.077 0 01-.212.046 9.63 9.63 0 01-.414.055 1.656 1.656 0 00-.315.071.546.546 0 00-.234.145.37.37 0 00-.088.26c0 .15.056.263.167.34a.746.746 0 00.426.113zm2.011.323v-2.811h.417v.424h.029a.674.674 0 01.278-.338.82.82 0 01.454-.13 4.879 4.879 0 01.227.007v.44a1.32 1.32 0 00-.101-.017.978.978 0 00-.163-.013.768.768 0 00-.366.086.631.631 0 00-.344.573v1.778h-.431zm3.315-2.811v.366h-1.456v-.366h1.456zm-1.032-.674h.432v2.68c0 .121.018.213.053.274.037.06.083.1.139.12a.55.55 0 00.181.03.766.766 0 00.117-.008l.074-.014.087.388a.889.889 0 01-.322.051.865.865 0 01-.358-.079.712.712 0 01-.289-.24.686.686 0 01-.114-.406v-2.796zm2.114 1.794v1.69h-.432V44.4h.417v.439h.037a.805.805 0 01.3-.344.93.93 0 01.519-.132c.191 0 .357.04.5.117a.786.786 0 01.333.352c.079.156.119.353.119.592v1.786h-.432v-1.756c0-.221-.057-.393-.172-.516a.61.61 0 00-.472-.187.756.756 0 00-.37.09.641.641 0 00-.254.261.867.867 0 00-.093.418zm3.76 1.749c-.27 0-.504-.06-.7-.18a1.197 1.197 0 01-.452-.504 1.721 1.721 0 01-.158-.758c0-.288.053-.542.158-.761a1.24 1.24 0 01.442-.516 1.19 1.19 0 01.667-.187c.146 0 .29.025.433.073a1.086 1.086 0 01.67.67c.069.18.104.4.104.663v.182h-2.166v-.373h1.727c0-.158-.032-.3-.095-.424a.714.714 0 00-.267-.295.748.748 0 00-.406-.108.777.777 0 00-.447.128.845.845 0 00-.287.33.969.969 0 00-.101.435v.249c0 .212.037.392.11.54a.788.788 0 00.309.335.907.907 0 00.459.113.936.936 0 00.308-.048.664.664 0 00.24-.146.67.67 0 00.155-.245l.417.117a.922.922 0 01-.221.373 1.086 1.086 0 01-.384.25 1.428 1.428 0 01-.515.087zm1.821-.058v-2.811h.417v.424h.03a.674.674 0 01.278-.338.817.817 0 01.454-.13 4.807 4.807 0 01.226.007v.44a1.262 1.262 0 00-.1-.017.986.986 0 00-.163-.013.762.762 0 00-.366.086.63.63 0 00-.344.573v1.778h-.432zm2.488-3.748l-.036 2.693h-.425l-.037-2.693h.498zm-.249 3.777a.317.317 0 01-.232-.097.316.316 0 01-.097-.233c0-.09.032-.167.097-.232a.317.317 0 01.232-.097c.091 0 .168.032.233.097a.32.32 0 01.051.397.34.34 0 01-.119.12.316.316 0 01-.165.045z" fill="#fff"/></svg>