<svg xmlns="http://www.w3.org/2000/svg" xml:space="preserve" width="450" height="177" style="shape-rendering:geometricPrecision;text-rendering:geometricPrecision;image-rendering:optimizeQuality;fill-rule:evenodd;clip-rule:evenodd" viewBox="0 0 447.9 176.25"><defs><style>.fil2{fill:#3b3836;fill-rule:nonzero}</style></defs><g id="svg115845"><g id="_2740322906560"><path d="M282.25 0c-2.5 5.83-6.99 10.54-13.84 13.84 5.79 2.32 10.24 7.16 13.84 13.85 2.83-6.24 7.44-10.86 13.86-13.85-6.78-2.8-11.41-7.42-13.86-13.84zM46.69 74.42c0-.61-.14-1.34-.14-1.34-2.41.91-6.96.43-6.96.43-.34-.21-.13-.9.32-1.57.22-.27.3-.55.52-.87.19-.28.17-.49.25-.89.05-.25.17-.56.13-.81-.01-.09-.14-.14-.15-.25-.03-.17.07-.34.06-.53-.05-.22-.2-.76-.39-.91-.18.18-.45.48-.75.4-.04-.35-.42-.7-.78-.68-.58.09-.76.76-1.03 1.19-.24.36-.65.91-1.04.4-.23-.33-.17-.69-.04-1.05.17.07.36.05.48-.06.28-.21.14-.48.25-.69.09-.2.32-.25.47-.37.27-.25.37-.64.49-.97-.11 0-.18-.07-.22-.18.13-.18.46-.5.37-.78-.03-.17-.2-.17-.27-.35.12-.2.17-.53.07-.77-.14-.36-.36-.21-.59-.29-.42-.18.1-.63-.08-.99-.26-.53-.61.21-.88.14-.31-.04-.15-.54-.19-.76-.05-.43-.34-.69-.69-.73-.37-.04-.57.07-.71-.34-.05-.14.04-.32-.13-.41-.11.09-.29.09-.41.19-.28-.2-.25-.6-.47-.75-.4-.24-.63.19-.89.39-.28-.2-.21-.44-.35-.65-.08-.15-.51-.25-.67-.25-.29.03-.63.59-.93.52-.22-.06-.47-.52-.75-.52-.27 0-.26.25-.43.38-.23.19-.28.03-.51-.09-.65-.37-1 .31-1.11.93-.11.53-.07.31-.48.36-.14.03-.51.34-.58.52-.14.35.53 1.11.28 1.3-.19.13-.54-.09-.77.08-.26.18-.26.28-.17.5.17.47.68.65.97 1.08-.36.02-.87.13-.69.71.12.4.66.5.8.81-.05.02-.11.1-.19.12-.05.32.27.7.5.92.26.2.57.4.78.71-.14.18-.37.25-.26.5.08.15.34.31.49.37.15.03.3 0 .46.03.16.06.33.13.48.19.71.28 1.34.86 1.73 1.52.21.37.5.92.29 1.35-.32.67-1.12.97-1.78.98-.51.02-.97-.15-1.42-.28-.46-.13-1.17-.06-1.59-.36-.4.01-.93-.43-1.26-.65-.37-.25-.49-.54-.7-.96-.29-.67-.56-1.34-.83-2-.15-.4-.28-.85-.54-1.19-.3-.43-.5-.23-.91-.16-.55.15-.55-.33-.88-.61-.09-.06-.45-.33-.59-.27-.16.05-.19.36-.36.45-.38-.33-.54-.64-.86-.03-.2.49-.25.23-.62.14-.33-.09-.73.26-.93.56-.24.44-.1.76.16 1.11-.11.22-.67.3-.92.21-.41-.21-.33-.78-.78-.93-.17-.05-.25.04-.37-.07-.15-.11-.13-.32-.26-.4-.45-.37-.7.33-.84.62-.3-.2-.75-.19-.9.18-.15.33.41.69.07.89-.15.08-.32-.03-.5.11-.09.05-.34.29-.35.41-.03.18.13.17.16.32.1.22.04.4 0 .65-.21 0-.37-.28-.56-.39-.15-.06-.31-.03-.41-.21.18-.21-.15-.64-.31-.76-.14.09-.24.25-.39.34-.24-.17-.38-.25-.68-.28-.21 0-.55-.06-.71 0 .16.57-.63.18-.82.2-.28.05-.68.43-.61.75.01.13.15.28.17.42-.25-.01-.92-.14-.84.31-.31-.09-.94-.11-1.1.24-.13.25.11.45-.2.61-.24.13-.84-.13-.95.33-.02.18.18.47.26.57-.31.08-.7.13-1.06.04-.39-.08-.7-.19-1.01.15-.37-.31-.46.33-.51.54-.49-.19-1.38-.19-1.82-.03-.38.14-.78.29-1.16.44-.32.12-.7.17-.97.3 0 0-.77.23-.69.52-.08.28.69.53.69.53.27.14.65.2.97.31.38.12.78.3 1.16.43.44.17 1.33.13 1.82-.04.05.21.14.86.51.58.31.3.62.19 1.01.11.36-.07.75-.04 1.06.03-.08.14-.28.4-.26.56.11.51.71.21.95.35.31.16.07.38.2.61.16.37.79.32 1.1.23-.08.48.59.33.84.32-.02.16-.16.3-.17.45-.07.3.33.71.61.71.19.04.98-.35.82.18.16.09.5.04.71 0 .3 0 .44-.09.68-.26.15.12.25.26.39.35.16-.12.49-.56.31-.75.1-.2.26-.16.41-.21.19-.13.35-.39.56-.39.04.23.1.4 0 .63-.03.15-.19.15-.16.35.01.1.26.33.35.41.18.11.35.01.5.09.34.21-.22.58-.07.88.15.38.6.39.9.18.14.33.39.98.84.62.13-.07.11-.27.26-.38.12-.1.2-.03.37-.08.45-.13.37-.7.78-.92.25-.09.81-.02.92.22-.26.32-.4.65-.16 1.1.2.3.6.65.93.54.37-.1.42-.35.62.14.32.62.48.32.86-.03.17.09.2.4.36.46.14.05.5-.2.59-.28.33-.26.33-.73.88-.61.41.1.61.27.91-.16.26-.33.39-.78.54-1.16.27-.69.54-1.33.83-2 .21-.43.33-.71.7-.96.33-.25.86-.69 1.26-.65.42-.3 1.13-.25 1.59-.38.45-.12.91-.28 1.42-.26.66.01 1.46.3 1.78 1 .21.4-.08.94-.29 1.31-.39.69-1.02 1.24-1.73 1.51-.15.08-.32.14-.48.19-.16.04-.31.02-.46.06-.15.04-.41.19-.49.36-.11.26.12.29.26.52-.21.29-.52.5-.78.7-.23.19-.55.59-.5.9.08.02.14.1.19.11-.14.32-.68.44-.8.83-.18.6.33.67.69.7-.29.43-.8.62-.97 1.08-.09.23-.09.35.17.51.23.18.58-.03.77.08.25.19-.42.91-.28 1.29.07.2.44.51.58.51.41.07.37-.16.48.39.11.62.46 1.29 1.11.93.23-.13.28-.3.51-.1.17.13.16.38.43.38.28-.01.53-.48.75-.53.3-.06.64.49.93.52.16.04.59-.11.67-.24.14-.23.07-.46.35-.65.26.19.49.64.89.39.22-.15.19-.55.47-.74.12.06.3.06.41.17.17-.1.08-.27.13-.42.14-.38.34-.28.71-.31.35-.05.64-.33.69-.76.04-.2-.12-.7.19-.75.27-.05.62.69.88.13.18-.34-.34-.81.08-.96.23-.1.45.05.59-.3.1-.24.05-.58-.07-.78.07-.18.24-.17.27-.35.09-.26-.24-.58-.37-.77.04-.11.11-.18.22-.18-.12-.34-.22-.73-.49-.98-.15-.14-.38-.17-.47-.36-.11-.22.03-.49-.25-.7a.456.456 0 0 0-.48-.06c-.13-.35-.19-.71.04-1.03.39-.53.8.04 1.04.37.27.43.45 1.11 1.03 1.17.36.04.74-.29.78-.66.3-.05.57.24.75.4.19-.11.34-.68.39-.92.01-.18-.09-.36-.06-.51.01-.08.14-.12.15-.26.04-.25-.08-.55-.13-.81-.08-.36-.06-.58-.25-.9-.22-.29-.3-.57-.52-.84-.45-.68-.66-1.38-.32-1.56 0 0 4.55-.49 6.96.41 0 0 .14-.73.14-1.34zm55.46 0c0-.61.14-1.34.14-1.34 2.4.91 6.94.43 6.94.43.36-.21.14-.9-.33-1.57-.2-.27-.29-.55-.48-.87-.22-.28-.21-.49-.27-.89-.03-.25-.16-.56-.12-.81 0-.09.13-.14.15-.25.02-.17-.08-.34-.05-.53.03-.22.16-.76.36-.91.19.18.47.48.75.4.04-.35.42-.7.8-.68.57.09.75.76 1.02 1.19.25.36.64.91 1.02.4.24-.33.19-.69.07-1.05a.48.48 0 0 1-.49-.06c-.27-.21-.14-.48-.26-.69-.09-.2-.32-.25-.45-.37-.26-.25-.38-.64-.51-.97.1 0 .19-.07.25-.18-.16-.18-.47-.5-.42-.78.05-.17.22-.17.3-.35-.13-.2-.16-.53-.08-.77.17-.36.35-.21.59-.29.44-.18-.09-.63.11-.99.23-.53.6.21.86.14.3-.04.16-.54.19-.76.03-.43.34-.69.7-.73.35-.04.57.07.7-.34.02-.14-.04-.32.13-.41.12.09.28.09.41.19.29-.2.24-.6.49-.75.38-.24.61.19.89.39.26-.2.19-.44.33-.65.08-.15.49-.25.68-.25.28.03.6.59.92.52.21-.06.47-.52.73-.52.29 0 .27.25.44.38.22.19.31.03.52-.09.66-.37 1 .31 1.13.93.11.53.04.31.45.36.17.03.51.34.59.52.13.35-.55 1.11-.26 1.3.16.13.52-.09.76.08.23.18.23.28.16.5-.19.47-.71.65-1 1.08.39.02.87.13.69.71-.1.4-.63.5-.76.81.05.02.11.1.17.12.06.32-.27.7-.5.92-.26.2-.56.4-.77.71.14.18.34.25.27.5-.07.15-.35.31-.5.37-.16.03-.3 0-.48.03-.16.06-.31.13-.49.19-.7.28-1.31.86-1.69 1.52-.22.37-.52.92-.29 1.35.31.67 1.09.97 1.78.98.48.02.95-.15 1.41-.28.46-.13 1.15-.06 1.59-.36.41.01.92-.43 1.26-.65.37-.25.49-.54.68-.96.3-.67.58-1.34.85-2 .14-.4.3-.85.55-1.19.3-.43.49-.23.89-.16.56.15.53-.33.9-.61.09-.06.44-.33.55-.27.2.05.21.36.38.45.4-.33.56-.64.85-.03.22.49.25.23.62.14.35-.09.76.26.94.56.27.44.12.76-.15 1.11.1.22.68.3.92.21.4-.21.32-.78.77-.93.19-.05.24.04.39-.07.14-.11.11-.32.24-.4.47-.37.7.33.85.62.29-.2.75-.19.91.18.11.33-.41.69-.08.89.15.08.3-.03.49.11.09.05.34.29.36.41.03.18-.12.17-.18.32-.09.22-.01.4.01.65.23 0 .36-.28.56-.39.18-.06.34-.03.4-.21-.17-.21.16-.64.35-.76.11.09.21.25.35.34.26-.17.4-.25.69-.28.21 0 .56-.06.73 0-.17.57.63.18.8.2.27.05.67.43.62.75-.01.13-.15.28-.16.42.23-.01.9-.14.82.31.32-.09.94-.11 1.12.24.11.25-.12.45.19.61.22.13.82-.13.95.33.01.18-.17.47-.28.57.34.08.72.13 1.08.04.4-.08.71-.19 1.01.15.37-.31.47.33.52.54.49-.19 1.37-.19 1.81-.03.4.14.78.29 1.15.44.32.12.69.17.99.3 0 0 .74.23.68.52.06.28-.68.53-.68.53-.3.14-.67.2-.99.31-.37.12-.75.3-1.15.43-.44.17-1.32.13-1.81-.04-.05.21-.15.86-.52.58-.3.3-.61.19-1.01.11-.36-.07-.74-.04-1.08.03.11.14.29.4.28.56-.13.51-.73.21-.95.35-.31.16-.08.38-.19.61-.18.37-.8.32-1.12.23.08.48-.59.33-.82.32.01.16.15.3.16.45.05.3-.35.71-.62.71-.17.04-.97-.35-.8.18-.17.09-.52.04-.73 0-.29 0-.43-.09-.69-.26-.14.12-.24.26-.35.35-.19-.12-.52-.56-.35-.75-.06-.2-.22-.16-.4-.21-.2-.13-.33-.39-.56-.39-.02.23-.1.4-.01.63.06.15.21.15.18.35-.02.1-.27.33-.36.41-.19.11-.34.01-.49.09-.33.21.19.58.08.88-.16.38-.62.39-.91.18-.15.33-.38.98-.85.62-.13-.07-.1-.27-.24-.38-.15-.1-.2-.03-.39-.08-.45-.13-.37-.7-.77-.92-.24-.09-.82-.02-.92.22.27.32.42.65.15 1.1-.18.3-.59.65-.94.54-.37-.1-.4-.35-.62.14-.29.62-.45.32-.85-.03-.17.09-.18.4-.38.46-.11.05-.46-.2-.55-.28-.37-.26-.34-.73-.9-.61-.4.1-.59.27-.89-.16-.25-.33-.41-.78-.55-1.16-.27-.69-.55-1.33-.85-2-.19-.43-.31-.71-.68-.96-.34-.25-.85-.69-1.26-.65-.44-.3-1.13-.25-1.59-.38-.46-.12-.93-.28-1.41-.26-.69.01-1.47.3-1.78 1-.23.4.07.94.29 1.31.38.69.99 1.24 1.69 1.51.18.08.33.14.49.19.18.04.32.02.48.06.15.04.43.19.5.36.07.26-.13.29-.27.52.21.29.51.5.77.7.23.19.56.59.5.9-.06.02-.12.1-.17.11.13.32.66.44.76.83.18.6-.3.67-.69.7.29.43.81.62 1 1.08.07.23.07.35-.16.51-.24.18-.6-.03-.76.08-.29.19.39.91.26 1.29-.08.2-.42.51-.59.51-.41.07-.34-.16-.45.39-.13.62-.47 1.29-1.13.93-.21-.13-.3-.3-.52-.1-.17.13-.15.38-.44.38-.26-.01-.52-.48-.73-.53-.32-.06-.64.49-.92.52-.19.04-.6-.11-.68-.24-.14-.23-.07-.46-.33-.65-.28.19-.51.64-.89.39-.25-.15-.2-.55-.49-.74-.13.06-.29.06-.41.17-.17-.1-.11-.27-.13-.42-.13-.38-.35-.28-.7-.31a.804.804 0 0 1-.7-.76c-.03-.2.11-.7-.19-.75-.26-.05-.63.69-.86.13-.2-.34.33-.81-.11-.96-.24-.1-.42.05-.59-.3-.08-.24-.05-.58.08-.78-.08-.18-.25-.17-.3-.35-.05-.26.26-.58.42-.77-.06-.11-.15-.18-.25-.18.13-.34.25-.73.51-.98.13-.14.36-.17.45-.36.12-.22-.01-.49.26-.7.14-.1.32-.14.49-.06.12-.35.17-.71-.07-1.03-.38-.53-.77.04-1.02.37-.27.43-.45 1.11-1.02 1.17-.38.04-.76-.29-.8-.66-.28-.05-.56.24-.75.4-.2-.11-.33-.68-.36-.92-.03-.18.07-.36.05-.51-.02-.08-.15-.12-.15-.26-.04-.25.09-.55.12-.81.06-.36.05-.58.27-.9.19-.29.28-.57.48-.84.47-.68.69-1.38.33-1.56 0 0-4.54-.49-6.94.41 0 0-.14-.73-.14-1.34zM74.42 46.7c.6 0 1.33-.15 1.33-.15-.91-2.4-.43-6.95-.43-6.95.22-.34.91-.14 1.58.32.27.21.55.3.86.51.29.2.49.18.89.26.26.05.56.17.81.12.1-.01.14-.13.25-.14.17-.03.35.07.53.05.22-.04.77-.19.91-.38-.18-.19-.48-.46-.4-.75.36-.04.7-.42.68-.79-.08-.57-.76-.75-1.19-1.02-.36-.24-.91-.65-.39-1.04.33-.23.69-.17 1.04-.05-.07.18-.04.36.07.49.21.27.47.13.69.25.19.09.24.31.36.47.25.26.64.37.98.48 0-.1.07-.17.17-.22.18.14.51.47.78.38.17-.03.17-.19.35-.27.21.11.53.16.77.08.37-.15.21-.37.29-.61.19-.41.63.1.99-.07.54-.26-.21-.62-.13-.88.03-.31.54-.16.76-.19.42-.05.69-.34.72-.69.05-.37-.07-.58.34-.71.15-.05.32.04.41-.13-.09-.12-.09-.28-.19-.42.2-.28.61-.24.76-.46.24-.4-.19-.62-.39-.89.2-.28.43-.21.65-.36.14-.07.25-.5.25-.66-.03-.3-.6-.63-.52-.93.05-.23.52-.47.52-.75 0-.27-.25-.26-.39-.43-.19-.23-.02-.28.1-.51.36-.65-.31-1-.94-1.12-.53-.1-.31-.06-.35-.46-.04-.15-.35-.52-.53-.59-.35-.14-1.1.53-1.29.27-.13-.17.09-.53-.08-.76-.19-.26-.29-.26-.5-.17-.48.17-.65.68-1.08.97-.03-.36-.13-.86-.72-.69-.4.12-.5.65-.81.8-.02-.06-.09-.11-.12-.19-.32-.05-.69.27-.91.5-.21.26-.4.56-.72.78-.17-.14-.25-.36-.5-.25-.15.06-.3.33-.36.47-.03.16 0 .31-.03.47-.07.16-.14.33-.19.48-.29.71-.87 1.33-1.52 1.74-.37.19-.92.49-1.35.28-.68-.32-.98-1.12-.99-1.78-.01-.51.15-.97.29-1.42.12-.47.06-1.17.36-1.58-.01-.41.42-.94.65-1.28.25-.37.53-.48.96-.69.66-.29 1.33-.57 2-.82.39-.16.85-.3 1.18-.55.44-.3.24-.5.16-.91-.15-.55.34-.55.62-.89.06-.09.33-.45.27-.58-.05-.16-.36-.19-.46-.36.34-.39.64-.54.04-.85-.49-.21-.23-.25-.14-.63.08-.34-.26-.73-.57-.93-.43-.24-.75-.11-1.1.16-.23-.11-.31-.67-.21-.92.21-.41.77-.33.93-.78.04-.17-.05-.25.07-.38.11-.14.31-.12.4-.24.37-.46-.34-.72-.63-.85.2-.3.19-.75-.18-.9-.32-.15-.69.41-.88.06-.08-.14.03-.31-.12-.49-.05-.09-.28-.33-.4-.35-.18-.03-.17.13-.33.16-.21.1-.39.04-.64 0 0-.21.27-.38.39-.56.05-.15.03-.31.22-.41.2.18.62-.16.74-.31-.09-.15-.24-.24-.34-.39.17-.24.25-.38.29-.68 0-.21.05-.55 0-.72-.58.17-.19-.62-.21-.8-.04-.28-.43-.69-.75-.63-.12.01-.27.16-.42.18.01-.25.15-.91-.31-.84.1-.31.12-.95-.23-1.1-.25-.13-.46.11-.61-.2-.13-.23.13-.84-.34-.95-.18-.03-.46.18-.57.26-.08-.32-.13-.71-.03-1.06.07-.39.19-.71-.15-1.01.3-.38-.33-.47-.54-.51.19-.5.19-1.39.03-1.82-.14-.39-.3-.78-.45-1.16-.11-.33-.16-.71-.3-.98 0 0-.22-.76-.51-.69-.28-.07-.54.69-.54.69-.13.27-.19.65-.31.98-.12.38-.3.77-.42 1.16-.18.43-.14 1.32.03 1.82-.21.04-.86.13-.57.51-.3.3-.19.62-.12 1.01.08.35.04.74-.02 1.06-.15-.08-.4-.29-.56-.26-.51.11-.21.72-.35.95-.16.31-.38.07-.62.2-.38.15-.32.79-.23 1.1-.48-.07-.32.59-.31.84-.17-.02-.3-.17-.45-.18-.31-.06-.71.35-.72.63-.04.18.36.97-.18.8-.08.17-.03.51 0 .72 0 .3.11.44.27.68-.13.15-.27.24-.35.39.11.15.56.49.75.31.2.1.15.26.22.41.12.18.37.35.37.56-.22.04-.39.1-.62 0-.16-.03-.16-.19-.35-.16-.11.02-.33.26-.41.35-.12.18-.01.35-.1.49-.2.35-.57-.21-.87-.06-.38.15-.4.6-.18.9-.34.13-.99.39-.63.85.08.12.27.1.38.24.1.13.03.21.08.38.13.45.71.37.92.78.1.25.03.81-.21.92-.32-.27-.65-.4-1.1-.16-.3.2-.66.59-.55.93.1.38.36.42-.13.63-.62.31-.32.46.02.85-.09.17-.4.2-.46.36-.04.13.2.49.28.58.27.34.74.34.62.89-.1.41-.27.61.15.91.34.25.79.39 1.17.55.69.25 1.32.53 1.99.82.44.21.72.32.97.69.25.34.68.87.65 1.28.3.41.25 1.11.38 1.58.11.45.27.91.26 1.42-.02.66-.3 1.46-1 1.78-.41.21-.95-.09-1.31-.28-.69-.41-1.24-1.03-1.51-1.74-.08-.15-.14-.32-.21-.48-.03-.16-.01-.31-.04-.47-.03-.14-.2-.41-.37-.47-.25-.11-.29.11-.52.25-.29-.22-.49-.52-.69-.78-.19-.23-.59-.55-.91-.5-.02.08-.09.13-.1.19-.32-.15-.44-.68-.84-.8-.59-.17-.67.33-.69.69-.43-.29-.62-.8-1.09-.97-.22-.09-.35-.09-.5.17-.19.23.02.59-.08.76-.19.26-.91-.41-1.29-.27-.2.07-.52.44-.52.59-.07.4.16.36-.39.46-.61.12-1.29.47-.93 1.12.14.23.3.28.11.51-.14.17-.39.16-.38.43.01.28.47.52.52.75.07.3-.5.63-.51.93-.04.16.11.59.23.66.23.15.47.08.66.36-.2.27-.64.49-.39.89.15.22.55.18.73.46-.05.14-.05.3-.16.42.1.17.27.08.41.13.38.13.28.34.32.71.05.35.33.64.75.69.21.03.71-.12.75.19.06.26-.67.62-.12.88.33.17.8-.34.96.07.1.24-.05.46.3.61.23.08.58.03.77-.08.19.08.17.24.36.27.25.09.58-.24.77-.38.1.05.18.12.18.22.34-.11.72-.22.97-.48.14-.16.17-.38.37-.47.22-.12.49.02.69-.25.11-.13.14-.31.07-.49.33-.12.71-.18 1.03.05.52.39-.04.8-.38 1.04-.43.27-1.1.45-1.17 1.02-.03.37.29.75.67.79.05.29-.24.56-.4.75.1.19.68.34.92.38.17.02.36-.08.51-.05.07.01.12.13.26.14.25.05.56-.07.81-.12.36-.08.57-.06.89-.26.29-.21.57-.3.85-.51.67-.46 1.37-.66 1.55-.32 0 0 .49 4.55-.4 6.95 0 0 .73.15 1.34.15zm0 55.46c.6 0 1.33.14 1.33.14-.91 2.4-.43 6.94-.43 6.94.22.36.91.14 1.58-.33.27-.2.55-.28.86-.49.29-.22.49-.2.89-.26.26-.04.56-.17.81-.12.1 0 .14.13.25.15.17.01.35-.09.53-.05.22.03.77.16.91.36-.18.19-.48.47-.4.75.36.04.7.42.68.79-.08.58-.76.75-1.19 1.03-.36.24-.91.65-.39 1.02.33.24.69.19 1.04.06a.467.467 0 0 1 .07-.48c.21-.27.47-.14.69-.26.19-.1.24-.33.36-.45.25-.27.64-.38.98-.51 0 .1.07.19.17.24.18-.15.51-.46.78-.41.17.05.17.22.35.3.21-.13.53-.17.77-.07.37.16.21.34.29.57.19.45.63-.08.99.11.54.24-.21.61-.13.86.03.31.54.17.76.2.42.03.69.34.72.7.05.35-.07.57.34.7.15.02.32-.04.41.12-.09.13-.09.29-.19.42.2.29.61.24.76.49.24.38-.19.61-.39.89.2.25.43.19.65.32.14.09.25.5.25.68-.03.28-.6.62-.52.93.05.21.52.46.52.74 0 .28-.25.26-.39.43-.19.23-.02.3.1.53.36.64-.31.99-.94 1.12-.53.11-.31.04-.35.44-.04.18-.35.52-.53.6-.35.13-1.1-.55-1.29-.27-.13.17.09.53-.08.77-.19.23-.29.23-.5.16-.48-.19-.65-.71-1.08-1-.03.39-.13.87-.72.69-.4-.1-.5-.64-.81-.76-.02.05-.09.1-.12.17-.32.05-.69-.27-.91-.51-.21-.25-.4-.55-.72-.77-.17.14-.25.35-.5.27-.15-.07-.3-.34-.36-.49-.03-.16 0-.31-.03-.49a3 3 0 0 1-.19-.48c-.29-.7-.87-1.32-1.52-1.69-.37-.22-.92-.52-1.35-.29-.68.31-.98 1.09-.99 1.78-.01.48.15.95.29 1.41.12.46.06 1.16.36 1.59-.01.41.42.92.65 1.25.25.37.53.49.96.7.66.3 1.33.57 2 .84.39.15.85.29 1.18.54.44.31.24.5.16.9-.15.55.34.53.62.89.06.1.33.45.27.56-.05.2-.36.21-.46.39.34.39.64.55.04.84-.49.22-.23.25-.14.62.08.35-.26.76-.57.95-.43.26-.75.11-1.1-.16-.23.1-.31.68-.21.91.21.41.77.33.93.78.04.18-.05.23.07.38.11.14.31.13.4.25.37.47-.34.7-.63.85.2.29.19.75-.18.91-.32.12-.69-.42-.88-.09-.08.15.03.31-.12.5-.05.1-.28.34-.4.37-.18.01-.17-.14-.33-.2-.21-.07-.39-.01-.64.02 0 .23.27.36.39.57.05.16.03.33.22.39.2-.17.62.16.74.35-.09.11-.24.2-.34.34.17.27.25.4.29.7 0 .21.05.56 0 .73-.58-.17-.19.63-.21.8-.04.27-.43.67-.75.63-.12-.02-.27-.17-.42-.17.01.22.15.89-.31.81.1.32.12.95-.23 1.13-.25.11-.46-.12-.61.18-.13.23.13.83-.34.96-.18.01-.46-.18-.57-.28-.08.33-.13.72-.03 1.07.07.4.19.72-.15 1.03.3.36-.33.46-.54.51.19.48.19 1.36.03 1.81-.14.39-.3.78-.45 1.15-.11.32-.16.68-.3.99 0 0-.22.73-.51.69-.28.04-.54-.69-.54-.69-.13-.31-.19-.67-.31-.99-.12-.37-.3-.76-.42-1.15-.18-.45-.14-1.33.03-1.81-.21-.05-.86-.15-.57-.51-.3-.31-.19-.63-.12-1.03.08-.35.04-.74-.02-1.07-.15.1-.4.29-.56.28-.51-.13-.21-.73-.35-.96-.16-.3-.38-.07-.62-.18-.38-.18-.32-.81-.23-1.13-.48.08-.32-.59-.31-.81-.17 0-.3.15-.45.17-.31.04-.71-.36-.72-.63-.04-.17.36-.97-.18-.8-.08-.17-.03-.52 0-.73 0-.3.11-.43.27-.7-.13-.14-.27-.23-.35-.34.11-.19.56-.52.75-.35.2-.06.15-.23.22-.39.12-.21.37-.34.37-.57-.22-.03-.39-.09-.62-.02-.16.06-.16.21-.35.2-.11-.03-.33-.27-.41-.37-.12-.19-.01-.35-.1-.5-.2-.33-.57.21-.87.09-.38-.16-.4-.62-.18-.91-.34-.15-.99-.38-.63-.85.08-.12.27-.11.38-.25.1-.15.03-.2.08-.38.13-.45.71-.37.92-.78.1-.23.03-.81-.21-.91-.32.27-.65.42-1.1.16-.3-.19-.66-.6-.55-.95.1-.37.36-.4-.13-.62-.62-.29-.32-.45.02-.84-.09-.18-.4-.19-.46-.39-.04-.11.2-.46.28-.56.27-.36.74-.34.62-.89-.1-.4-.27-.59.15-.9.34-.25.79-.39 1.17-.54.69-.27 1.32-.54 1.99-.84.44-.21.72-.33.97-.7.25-.33.68-.84.65-1.25.3-.43.25-1.13.38-1.59.11-.46.27-.93.26-1.41-.02-.69-.3-1.47-1-1.78-.41-.23-.95.07-1.31.29-.69.37-1.24.99-1.51 1.69-.08.18-.14.33-.21.48-.03.18-.01.33-.04.49-.03.15-.2.42-.37.49-.25.08-.29-.13-.52-.27-.29.22-.49.52-.69.77-.19.24-.59.56-.91.51-.02-.07-.09-.12-.1-.17-.32.12-.44.66-.84.76-.59.18-.67-.3-.69-.69-.43.29-.62.81-1.09 1-.22.07-.35.07-.5-.16-.19-.24.02-.6-.08-.77-.19-.28-.91.4-1.29.27-.2-.08-.52-.42-.52-.6-.07-.4.16-.33-.39-.44-.61-.13-1.29-.48-.93-1.12.14-.23.3-.3.11-.53-.14-.17-.39-.15-.38-.43.01-.28.47-.53.52-.74.07-.31-.5-.65-.51-.93-.04-.18.11-.59.23-.68.23-.13.47-.07.66-.32-.2-.28-.64-.51-.39-.89.15-.25.55-.2.73-.49-.05-.13-.05-.29-.16-.42.1-.16.27-.1.41-.12.38-.13.28-.35.32-.7.05-.36.33-.67.75-.7.21-.03.71.11.75-.2.06-.25-.67-.62-.12-.86.33-.19.8.34.96-.11.1-.23-.05-.41.3-.57a.9.9 0 0 1 .77.07c.19-.08.17-.25.36-.3.25-.05.58.26.77.41.1-.05.18-.14.18-.24.34.13.72.24.97.51.14.12.17.35.37.45.22.12.49-.01.69.26.11.14.14.32.07.48.33.13.71.18 1.03-.06.52-.37-.04-.78-.38-1.02-.43-.28-1.1-.45-1.17-1.03-.03-.37.29-.75.67-.79.05-.28-.24-.56-.4-.75.1-.2.68-.33.92-.36.17-.04.36.06.51.05.07-.02.12-.15.26-.15.25-.05.56.08.81.12.36.06.57.04.89.26.29.21.57.29.85.49.67.47 1.37.69 1.55.33 0 0 .49-4.54-.4-6.94 0 0 .73-.14 1.34-.14zm34.38 6.64c.42-.42.84-1.05.84-1.05-2.32-1.05-5.22-4.62-5.22-4.62-.09-.36.55-.72 1.33-.86.36-.06.61-.21.98-.26.35-.07.49-.22.82-.44.2-.16.5-.28.66-.5.07-.07.01-.21.07-.27.09-.14.3-.18.37-.34.17-.19.48-.7.42-.93-.27 0-.66 0-.83-.23.25-.27.21-.79-.07-1.03-.46-.37-1.07 0-1.57.11-.41.09-1.1.19-1-.47.07-.37.35-.62.67-.77a.6.6 0 0 0 .44.31c.32.03.4-.24.64-.32.22-.08.4.05.6.07.36.01.7-.19 1.02-.35-.06-.05-.07-.19-.02-.28.22-.02.69-.02.84-.26.09-.16-.04-.26.03-.45.23-.07.5-.26.6-.49.16-.36-.1-.39-.21-.65-.17-.42.51-.36.64-.75.18-.57-.6-.29-.74-.51-.18-.27.31-.5.41-.67.25-.34.25-.73.03-1.03-.22-.27-.44-.34-.25-.71.06-.15.25-.22.22-.39-.19-.03-.29-.12-.44-.17-.06-.34.25-.59.17-.85-.1-.45-.57-.34-.9-.37-.04-.32.19-.44.23-.7.01-.17-.17-.54-.29-.65-.25-.18-.88-.02-1.05-.28-.11-.21.05-.71-.13-.89-.2-.23-.36-.01-.59-.04-.3-.04-.24-.19-.3-.45-.19-.7-.95-.49-1.47-.12-.45.3-.23.16-.56-.08-.13-.07-.59-.12-.79-.02-.35.16-.41 1.13-.72 1.08-.24-.03-.3-.44-.6-.47-.3-.05-.37.02-.46.23-.22.47.02.96-.08 1.45-.28-.23-.71-.51-1.01.04-.19.35.1.8-.01 1.12-.04-.01-.15-.01-.2-.04-.26.17-.3.7-.26.99.01.32.07.69.01 1.03-.25.05-.43-.04-.53.18-.1.17 0 .48.08.62.08.12.2.23.3.36.06.15.14.3.19.48.31.71.36 1.53.16 2.29-.11.41-.29.99-.73 1.15-.73.25-1.49-.1-1.98-.57-.35-.34-.54-.76-.8-1.19-.24-.43-.77-.86-.86-1.39-.32-.27-.36-.96-.45-1.36-.08-.44.04-.73.2-1.16.25-.68.54-1.34.83-2 .17-.39.38-.82.44-1.23.1-.51-.17-.53-.51-.76-.49-.28-.16-.59-.21-1.05-.01-.11-.08-.55-.21-.61-.16-.09-.39.13-.58.08-.04-.51.06-.85-.6-.62-.53.19-.33-.01-.53-.35-.17-.31-.71-.37-1.04-.27-.48.14-.63.46-.66.89-.27.08-.72-.27-.83-.5-.12-.43.34-.78.11-1.2-.08-.14-.19-.13-.2-.32-.02-.19.09-.32.09-.46-.06-.58-.7-.26-1.03-.16-.05-.33-.4-.66-.78-.5-.31.11-.18.77-.57.66-.16-.04-.21-.23-.43-.26-.09-.02-.45-.04-.52.03-.17.12-.05.23-.12.35-.07.23-.29.3-.47.47-.15-.17-.07-.47-.13-.68-.03-.17-.18-.24-.13-.44.3-.03.35-.55.31-.77-.16-.03-.35.02-.51-.02-.05-.3-.1-.46-.31-.69-.11-.14-.32-.42-.49-.49-.28.51-.55-.33-.7-.44-.24-.17-.78-.17-.97.08-.08.13-.08.3-.18.43-.16-.18-.54-.75-.82-.35-.14-.31-.58-.78-.96-.65-.24.1-.23.41-.54.32-.26-.08-.5-.71-.91-.45-.15.12-.21.45-.21.6-.29-.18-.6-.44-.81-.75-.19-.33-.34-.61-.8-.6-.06-.48-.56-.1-.77.02-.21-.46-.8-1.1-1.24-1.31-.37-.16-.75-.33-1.14-.5-.32-.15-.6-.38-.88-.5 0 0-.7-.34-.87-.11-.25.18.12.86.12.86.09.29.33.61.46.9.19.4.34.77.5 1.15.23.4.84 1.04 1.32 1.26-.1.18-.5.7-.02.74-.02.44.29.62.62.8.33.2.56.51.75.81-.16 0-.5.06-.6.2-.28.41.37.67.44.91.09.33-.23.3-.31.57-.14.37.35.8.64.95-.38.3.16.65.35.82-.14.08-.33.08-.44.18-.24.18-.25.74-.08.96.12.17.96.43.44.71.08.16.37.37.52.49.23.21.38.25.67.32.04.15 0 .32.02.49.21.03.73-.01.76-.3.17-.07.29.08.46.12.19.06.51-.04.65.16-.14.17-.24.35-.45.44-.12.09-.24-.05-.37.13-.04.05-.03.4-.01.52.04.2.22.26.28.42.07.38-.56.25-.69.56-.14.37.16.71.49.79-.09.33-.4.96.18 1.02.15.04.27-.11.46-.08.18.02.15.13.31.19.42.25.77-.23 1.2-.08.24.08.6.55.53.8-.45.03-.78.17-.92.67-.11.35-.04.87.27 1.05.33.19.55.02.36.52-.26.67.1.57.62.61.05.19-.17.4-.07.58.07.12.48.19.59.2.47.06.77-.27 1.08.2.23.35.23.6.75.52.41-.06.82-.28 1.22-.44.65-.29 1.3-.57 2.01-.83.44-.15.72-.27 1.16-.19.39.08 1.07.12 1.36.43.5.08.94.62 1.38.86.42.25.86.46 1.19.81.46.49.82 1.26.57 1.98-.17.42-.74.61-1.15.71-.78.23-1.6.16-2.3-.12-.17-.08-.34-.13-.46-.23-.15-.06-.24-.2-.4-.26-.1-.09-.43-.17-.59-.1-.24.11-.12.3-.16.52-.38.07-.73 0-1.06-.02-.3-.03-.81.01-1 .28.07.07.04.16.07.19-.35.16-.77-.16-1.14.05-.54.26-.28.7-.03.98-.51.11-.98-.13-1.45.09-.2.08-.29.17-.25.45.05.3.47.39.51.59.04.34-.96.39-1.11.74-.09.18-.08.66.03.78.26.31.39.12.08.59-.35.51-.59 1.25.11 1.45.26.07.43-.01.45.28.03.23-.18.4.03.61.18.15.7 0 .88.13.29.17.12.8.32 1.03.09.13.49.34.65.29.24-.04.37-.27.7-.22.03.34-.11.8.36.92.26.06.5-.26.84-.19.03.15.16.25.17.42.19.05.24-.13.39-.21.36-.2.45.04.72.26.3.22.7.22 1 0 .2-.16.44-.6.7-.43.24.15-.05.91.51.73.37-.13.34-.84.74-.63.25.1.28.35.65.2.24-.09.44-.36.51-.6.16-.06.27.05.43-.04.25-.16.25-.6.27-.82.09-.02.23-.02.3.01.13-.3.34-.67.33-1.03-.03-.2-.15-.37-.07-.59.07-.23.34-.34.31-.66a.527.527 0 0 0-.29-.4c.15-.32.38-.62.76-.69.63-.1.55.58.48 1.01-.12.5-.48 1.1-.12 1.56.23.28.75.31 1.03.08.24.15.23.54.24.81.24.03.73-.25.91-.39.15-.11.2-.29.34-.4.07-.07.2 0 .29-.07.21-.14.33-.44.46-.65.24-.33.41-.47.47-.83s.19-.62.26-.97c.13-.79.48-1.41.87-1.32 0 0 3.55 2.87 4.62 5.19 0 0 .62-.4 1.05-.83zm-68.76 0c-.43-.42-.84-1.06-.84-1.06 2.34-1.06 5.19-4.6 5.19-4.6.09-.38-.51-.72-1.32-.87-.33-.05-.6-.19-.95-.26-.37-.06-.51-.25-.84-.46-.2-.14-.49-.24-.67-.47-.07-.09 0-.21-.07-.29-.09-.1-.28-.19-.38-.33-.14-.18-.44-.69-.39-.9.26-.03.67-.01.82-.26-.24-.27-.2-.79.08-1.04.46-.36 1.07.02 1.56.12.41.08 1.1.17.99-.48-.07-.36-.36-.6-.68-.77-.07.18-.22.29-.4.33-.31.03-.44-.25-.66-.33-.2-.08-.4.06-.59.08-.37 0-.73-.21-1.04-.33.06-.09.08-.19.04-.32-.23-.01-.71-.04-.84-.25-.08-.15.04-.27-.05-.46-.22-.07-.49-.26-.58-.47-.15-.38.11-.4.22-.66.15-.41-.52-.37-.66-.73-.2-.58.58-.31.75-.53.16-.27-.29-.5-.43-.67-.26-.34-.24-.74-.03-1.02.2-.28.47-.37.26-.72-.06-.13-.26-.2-.21-.41.17-.01.29-.11.45-.16.04-.33-.27-.57-.2-.83.11-.47.57-.32.9-.39.07-.31-.18-.42-.21-.7-.03-.15.17-.54.28-.63.23-.19.89-.04 1.03-.3.14-.2-.05-.7.16-.89.2-.21.35-.01.59-.04.29-.01.22-.2.29-.45.2-.71.93-.47 1.45-.11.47.31.26.18.58-.07.14-.11.59-.13.8-.04.33.15.39 1.15.71 1.09.21-.05.28-.42.59-.48.29-.04.38.05.48.24.2.46-.03.96.06 1.45.28-.23.72-.53 1.01.02.2.38-.11.81.02 1.14.05-.01.14 0 .2-.04.27.18.31.69.29.97-.02.35-.1.7-.02 1.07.22.04.39-.06.52.18.06.15 0 .47-.09.59-.09.13-.21.21-.3.38-.07.15-.13.29-.19.47-.31.7-.34 1.53-.15 2.31.13.38.29.97.73 1.13.71.26 1.48-.09 1.97-.58.35-.33.57-.77.82-1.18.22-.42.77-.87.85-1.38.3-.28.35-.97.42-1.36.09-.45-.01-.73-.2-1.16-.24-.69-.51-1.35-.8-2.02-.18-.39-.39-.8-.45-1.23-.09-.5.18-.5.52-.73.49-.3.15-.62.19-1.06.03-.12.09-.55.22-.61.17-.09.38.12.59.06.03-.51-.07-.84.58-.6.5.18.36-.02.53-.36.19-.32.74-.36 1.06-.27.5.11.6.47.66.9.25.08.72-.28.81-.51.15-.44-.33-.79-.11-1.22.09-.13.2-.12.21-.29.03-.21-.1-.33-.1-.47.06-.57.71-.28 1.05-.16.06-.35.4-.67.77-.5.31.11.2.78.56.66.16-.02.22-.21.43-.28.1 0 .45-.02.55.05.16.12.03.23.1.37.09.2.28.28.45.43.17-.15.08-.45.14-.65.06-.18.21-.27.15-.44-.29-.04-.35-.56-.34-.79.18-.02.36.03.52 0 .06-.31.12-.47.3-.7.13-.13.33-.43.51-.49.27.5.56-.33.7-.44.22-.19.78-.19.98.08.07.1.07.31.18.43.16-.18.53-.74.81-.35.15-.3.56-.78.96-.65.22.1.21.42.53.32.28-.08.52-.71.94-.43.15.09.19.41.19.59.3-.19.6-.44.8-.72.21-.37.36-.65.82-.63.04-.49.56-.11.75.01.21-.48.82-1.1 1.26-1.31.36-.18.73-.33 1.12-.52.3-.13.62-.33.92-.46 0 0 .67-.35.86-.1.23.14-.12.84-.12.84-.1.28-.36.6-.48.92-.17.37-.34.74-.53 1.12-.18.41-.82 1.04-1.3 1.25.11.18.51.7.03.77.02.42-.28.58-.62.8-.32.19-.55.5-.74.81.14 0 .51.03.6.17.27.42-.38.66-.46.93-.1.3.26.3.34.54.14.39-.36.83-.64.99.38.26-.2.63-.38.79.14.1.34.1.44.19.27.19.27.73.07.96-.09.13-.93.43-.41.71-.08.17-.38.36-.5.51-.23.2-.41.23-.7.29-.04.17.02.34-.02.5-.22.04-.74-.03-.76-.31-.21-.03-.29.08-.46.14-.19.06-.5-.02-.63.14.13.17.22.38.42.47.13.05.24-.08.36.09.07.08.06.43.04.53-.04.23-.23.26-.27.45-.09.38.54.23.67.55.15.37-.16.72-.52.76.12.34.44.99-.15 1.06-.14.02-.25-.13-.45-.1-.18.03-.17.12-.32.21-.41.23-.77-.24-1.2-.09-.23.07-.6.53-.52.8.44.03.77.16.91.63.1.37.04.9-.29 1.08-.31.19-.51.03-.33.55.24.62-.12.52-.63.58-.04.18.17.4.07.57-.05.13-.48.21-.59.22-.47.04-.78-.29-1.06.18-.22.37-.25.61-.76.54-.41-.05-.83-.3-1.21-.45-.67-.28-1.32-.57-2.02-.81-.43-.17-.71-.29-1.15-.21-.42.08-1.09.14-1.36.43-.52.09-.98.64-1.38.88-.43.23-.85.44-1.21.8-.48.48-.8 1.26-.55 1.97.14.44.72.61 1.12.73.78.2 1.61.16 2.31-.15.16-.06.33-.12.48-.21.14-.06.23-.21.36-.3.14-.05.44-.16.6-.05.24.12.14.3.19.51.36.05.72 0 1.04-.03.31-.01.81.02.98.28-.03.06-.02.17-.03.18.31.15.76-.15 1.14.05.53.28.25.71.01 1 .49.11.97-.14 1.45.07.21.1.29.18.24.45-.04.31-.44.41-.47.6-.07.34.92.39 1.1.72.07.2.05.67-.05.8-.25.34-.38.13-.07.59.35.52.57 1.26-.13 1.44-.24.07-.41 0-.45.29-.01.22.18.39-.03.6-.18.18-.68.01-.89.14-.26.15-.08.8-.29 1.05-.1.12-.48.3-.63.28-.27-.05-.4-.27-.72-.23-.04.32.1.8-.36.92-.27.07-.52-.25-.84-.19-.06.15-.18.26-.18.42-.19.05-.26-.15-.4-.21-.34-.18-.43.06-.71.26-.3.23-.72.25-1.01-.03-.19-.11-.42-.56-.68-.39-.22.14.06.9-.53.72-.37-.12-.32-.81-.74-.65-.24.09-.28.37-.64.22-.24-.1-.42-.36-.5-.61-.16-.08-.3.07-.44-.03-.23-.13-.25-.59-.27-.83a.357.357 0 0 0-.29.03c-.15-.33-.36-.66-.32-1.02 0-.23.12-.38.05-.6-.07-.23-.35-.33-.3-.69.01-.15.12-.32.29-.37-.16-.33-.39-.64-.79-.71-.62-.09-.54.59-.46 1.02.12.49.47 1.08.13 1.55-.24.29-.75.31-1.03.09-.26.15-.24.56-.26.81-.22.06-.71-.25-.9-.37-.16-.12-.2-.32-.32-.42-.07-.06-.23 0-.31-.06-.2-.16-.32-.46-.47-.65-.22-.34-.39-.47-.46-.83-.06-.38-.2-.62-.27-.99-.1-.77-.47-1.39-.86-1.3 0 0-3.55 2.87-4.62 5.19 0 0-.62-.4-1.04-.84zm68.73-68.76c-.41-.41-1.04-.83-1.04-.83-1.05 2.34-4.61 5.21-4.61 5.21-.39.07-.75-.52-.86-1.31-.06-.38-.19-.64-.28-.99-.07-.37-.23-.51-.44-.81-.14-.21-.28-.52-.49-.66-.08-.08-.2-.01-.28-.08-.13-.09-.19-.3-.35-.41-.16-.13-.67-.41-.92-.38 0 .26 0 .66-.22.8-.3-.22-.83-.19-1.04.1-.35.45.01 1.06.12 1.57.07.42.17 1.09-.47.98-.4-.05-.63-.36-.75-.69.15-.07.26-.21.29-.38.03-.33-.23-.42-.32-.67-.07-.2.07-.37.07-.59.02-.35-.19-.74-.34-1.03-.06.06-.18.06-.29.03-.02-.23-.02-.69-.26-.84-.15-.1-.27.02-.45-.03-.07-.25-.26-.51-.49-.6-.38-.15-.41.11-.67.22-.4.16-.36-.52-.7-.67-.58-.17-.33.6-.54.74-.26.18-.5-.28-.66-.43-.34-.22-.76-.22-1.04-.01-.26.22-.35.44-.72.26-.12-.05-.2-.25-.39-.2-.01.17-.14.26-.18.43-.32.06-.57-.25-.84-.19-.45.11-.31.58-.34.91-.35.05-.45-.17-.74-.21-.16-.04-.52.15-.62.28-.19.23-.05.88-.3 1.02-.19.14-.71-.03-.89.16-.21.2-.02.36-.04.59-.03.28-.19.23-.45.28-.7.2-.48.93-.11 1.47.31.47.17.25-.07.58-.08.12-.13.6-.06.78.17.35 1.18.41 1.1.74-.04.18-.42.28-.47.58-.04.3.03.36.24.47.45.2.95-.03 1.46.06-.24.3-.53.73.01 1.02.37.18.81-.12 1.15 0-.03.06-.03.14-.07.21.2.28.69.32 1 .3.32-.05.69-.1 1.06-.05.03.23-.07.42.18.53.14.07.45 0 .58-.09.15-.07.24-.19.4-.29.15-.08.29-.15.45-.2.71-.29 1.55-.35 2.29-.15.41.14 1.01.31 1.16.74.25.72-.08 1.49-.58 1.97-.33.35-.77.55-1.18.8-.44.25-.87.78-1.39.87-.28.32-.96.36-1.36.42-.44.1-.72-.02-1.16-.18-.68-.25-1.33-.54-2-.83-.39-.16-.82-.38-1.23-.42-.52-.11-.54.16-.75.49-.3.51-.62.17-1.08.2-.09.02-.53.1-.59.23-.07.17.15.39.06.57-.5.04-.83-.06-.61.59.21.5-.01.34-.34.55-.32.18-.37.69-.28 1.05.14.47.46.61.9.64.09.25-.27.72-.5.82-.44.14-.79-.34-1.2-.1-.16.06-.16.2-.34.2-.17.03-.28-.1-.46-.08-.57.05-.24.7-.15 1.04-.32.04-.67.39-.49.78.12.3.76.17.64.54-.01.17-.21.23-.24.42-.01.12-.05.47.01.56.14.15.23.05.4.1.19.09.27.27.43.45-.16.17-.45.1-.66.16-.17.03-.26.18-.44.12-.05-.29-.57-.34-.79-.31-.01.16.02.33 0 .5-.3.07-.46.1-.67.3-.18.13-.45.33-.52.5.52.29-.34.55-.43.7-.2.24-.19.79.06.99.12.07.31.07.44.17-.17.16-.74.53-.35.82-.28.15-.77.57-.64.95.08.27.42.23.3.57-.07.25-.7.48-.43.91.11.14.43.19.58.19-.17.3-.42.6-.73.8-.34.2-.61.36-.61.8-.48.07-.08.57.02.77-.48.21-1.11.84-1.32 1.24-.17.38-.33.75-.5 1.13-.13.32-.37.63-.48.93 0 0-.37.68-.12.85.18.23.87-.12.87-.12.29-.11.6-.33.9-.49.39-.15.76-.33 1.13-.51.42-.19 1.04-.82 1.27-1.29.18.11.69.5.74.01.43 0 .61-.28.81-.61.2-.3.51-.57.8-.75 0 .16.04.49.17.6.44.26.68-.36.94-.44.32-.11.32.22.56.32.38.14.81-.35.96-.65.28.39.64-.17.81-.35.09.14.09.31.17.44.19.24.76.24.98.08.14-.13.43-.95.71-.45.17-.07.37-.35.51-.5.21-.22.24-.39.28-.68.17-.05.34.03.51-.02.04-.22-.02-.74-.31-.75-.05-.21.07-.3.14-.46.06-.2-.04-.51.12-.66.19.15.39.24.48.43.08.14-.03.26.1.38.08.06.44.02.53.02.23-.02.26-.23.44-.26.36-.11.25.55.55.68.4.14.73-.17.8-.51.3.09.96.43 1.01-.15.05-.16-.1-.29-.09-.47.04-.18.14-.18.2-.31.24-.44-.21-.77-.06-1.21.06-.25.53-.61.79-.51.03.44.17.76.64.9.36.08.88.05 1.06-.28.2-.33.03-.53.54-.35.64.24.55-.09.58-.61.22-.06.42.15.59.07.11-.07.22-.48.22-.6.04-.47-.29-.78.17-1.08.38-.22.64-.22.55-.75-.06-.39-.29-.83-.44-1.2-.29-.68-.57-1.34-.83-2.02-.16-.44-.27-.71-.2-1.17.08-.39.13-1.08.43-1.34.09-.52.61-.98.88-1.4.23-.41.45-.83.78-1.17.5-.48 1.28-.83 1.98-.58.45.16.63.74.74 1.15.19.74.15 1.58-.14 2.28-.08.19-.15.34-.21.47-.07.19-.23.25-.29.37-.1.15-.18.44-.1.63.12.22.32.12.55.16.06.37 0 .72-.03 1.06-.03.29 0 .81.28.99.07-.06.15-.03.18-.06.16.34-.15.76.04 1.13.28.54.72.27 1 .04.1.5-.15.97.07 1.43.1.23.16.31.45.26.3-.05.39-.45.61-.5.32-.04.38.95.72 1.12.19.09.65.03.79-.05.33-.25.13-.39.57-.08.55.35 1.28.6 1.45-.12.08-.25 0-.4.3-.43.21-.04.39.17.62-.05.15-.18.01-.69.12-.88.18-.27.79-.09 1.02-.29.15-.13.35-.5.3-.65-.04-.25-.27-.39-.22-.72.34-.02.81.09.93-.35.05-.28-.26-.5-.22-.86.18-.04.27-.14.44-.15.06-.2-.13-.26-.21-.39-.2-.38.04-.45.27-.73.2-.29.23-.69-.03-1.01-.12-.19-.59-.42-.39-.68.14-.23.9.06.72-.53-.15-.36-.83-.32-.65-.74.1-.25.37-.27.23-.64-.12-.23-.39-.43-.63-.5-.04-.19.07-.28-.03-.46-.13-.22-.61-.22-.82-.25a.255.255 0 0 1 .02-.29c-.32-.15-.68-.36-1.02-.34-.24 0-.39.15-.64.08-.19-.08-.3-.37-.63-.32-.18.02-.32.14-.38.29-.35-.12-.66-.37-.72-.75-.1-.65.56-.56 1.01-.47.51.09 1.1.47 1.57.09.29-.21.31-.73.07-1.02.16-.24.54-.24.8-.24.07-.22-.23-.74-.37-.92-.09-.14-.3-.2-.4-.33-.05-.08 0-.2-.05-.29-.18-.2-.48-.32-.67-.46-.34-.24-.46-.4-.84-.46-.35-.07-.6-.19-.96-.26-.79-.14-1.42-.49-1.32-.88 0 0 2.86-3.55 5.22-4.61 0 0-.44-.62-.87-1.06zm-68.75 0c.43-.44 1.07-.85 1.07-.85 1.06 2.36 4.61 5.21 4.61 5.21.4.1.74-.53.86-1.32.06-.34.21-.6.26-.95.08-.37.24-.52.46-.82.15-.22.26-.53.48-.68.08-.06.21-.01.28-.06.13-.11.19-.31.32-.41.2-.16.7-.43.92-.39.01.27 0 .66.25.8.29-.22.8-.16 1.03.11.35.44 0 1.04-.11 1.55-.08.43-.18 1.11.46 1.02.4-.09.65-.38.77-.72-.18-.05-.26-.23-.29-.37-.03-.35.24-.44.3-.68.08-.21-.03-.38-.04-.6-.03-.35.17-.71.33-1.03.07.07.18.09.29.04.02-.24.02-.7.25-.85.17-.08.26.03.46-.03.07-.23.26-.49.51-.58.33-.16.36.1.63.2.43.17.36-.53.73-.64.57-.21.29.57.52.74.26.15.51-.3.68-.44.33-.24.73-.24 1.02 0 .27.19.38.44.73.24.13-.07.2-.24.39-.19 0 .17.12.28.15.42.35.07.6-.25.86-.2.44.13.32.6.36.92.31.05.46-.17.71-.22.14-.01.53.16.62.29.21.22.04.88.31 1.02.21.12.7-.03.9.16.2.21 0 .37.02.6.03.28.21.22.44.28.73.19.5.93.13 1.44-.3.48-.16.27.09.61.08.11.12.59.03.79-.16.34-1.17.38-1.11.71.06.21.43.3.49.61.06.29-.04.35-.24.44-.45.23-.96-.01-1.45.08.23.28.53.71-.01.99-.38.2-.82-.1-1.16.04.02.03 0 .14.05.2-.18.25-.68.3-.98.28-.33-.03-.68-.1-1.06-.05-.02.25.07.43-.17.55-.16.07-.46 0-.61-.08-.11-.08-.21-.22-.37-.3-.14-.07-.31-.15-.45-.2-.72-.3-1.54-.36-2.31-.14-.4.11-1 .27-1.14.73-.25.7.09 1.48.57 1.96.33.35.76.57 1.19.81.43.24.86.78 1.37.86.29.3.96.36 1.37.44.44.08.71-.03 1.16-.2.7-.27 1.34-.54 2.03-.84.35-.16.79-.36 1.19-.43.53-.07.53.17.76.53.32.47.62.15 1.08.18.09.02.52.09.59.21.07.19-.12.4-.07.6.5.04.83-.07.61.58-.18.51.04.35.37.53.3.2.34.71.26 1.07-.13.47-.47.61-.91.65-.09.26.28.72.5.81.46.15.8-.34 1.23-.07.14.06.13.17.31.18.19.03.32-.12.46-.1.58.07.26.7.17 1.06.31.03.66.38.5.75-.14.33-.77.18-.68.56.02.18.24.23.27.43.03.11.04.47-.03.56-.12.15-.24.01-.36.09-.22.1-.31.26-.47.46.16.15.48.07.69.15.16.04.24.18.42.13.04-.29.57-.36.78-.31.04.16 0 .32.02.49.31.08.45.1.69.3.13.15.43.34.5.5-.51.29.31.55.44.72.18.23.16.77-.1.96-.09.09-.29.08-.43.17.18.18.76.54.36.81.31.16.79.6.65.97-.1.25-.41.24-.32.57.1.26.7.48.46.91-.12.15-.46.19-.6.19.19.3.41.6.73.8.34.21.63.37.62.79.48.08.08.59-.02.77.47.22 1.1.83 1.3 1.26.16.37.35.73.53 1.14.12.31.35.61.47.91 0 0 .34.67.11.85-.17.25-.86-.11-.86-.11-.29-.11-.61-.34-.93-.49-.36-.16-.74-.34-1.11-.5-.43-.22-1.03-.85-1.25-1.31-.2.1-.71.49-.78.02-.42 0-.59-.28-.79-.63-.2-.31-.5-.54-.8-.74 0 .16-.04.5-.2.6-.42.27-.64-.35-.9-.44-.34-.1-.31.21-.56.33-.38.12-.81-.36-.97-.65-.27.4-.64-.19-.81-.35-.09.11-.09.31-.19.43-.2.24-.74.24-.96.08-.14-.12-.41-.96-.7-.46-.18-.04-.37-.33-.51-.48-.2-.24-.23-.41-.3-.69-.16-.03-.33 0-.52-.02-.01-.22.06-.73.32-.76.09-.18-.08-.29-.13-.44-.05-.22.03-.51-.13-.67-.19.14-.36.22-.46.44-.07.13.05.25-.11.38-.08.05-.44.03-.54.01-.22-.03-.25-.22-.42-.26-.38-.12-.26.55-.56.67-.39.17-.72-.17-.77-.51-.34.12-.99.42-1.07-.14 0-.18.14-.27.11-.48-.01-.16-.12-.16-.19-.3-.23-.43.22-.78.08-1.22-.08-.23-.53-.57-.8-.49-.05.41-.17.77-.66.89-.35.08-.87.03-1.06-.26-.19-.33-.02-.56-.52-.37-.66.23-.56-.09-.58-.62-.21-.05-.44.16-.61.07-.13-.07-.19-.48-.19-.6-.06-.46.27-.76-.2-1.06-.35-.22-.61-.23-.54-.74.05-.43.29-.84.46-1.23.28-.66.55-1.33.82-2.01.17-.44.26-.72.2-1.16-.08-.39-.13-1.09-.44-1.36-.07-.51-.62-.96-.85-1.38-.26-.42-.46-.85-.81-1.19-.5-.48-1.26-.81-1.97-.57-.46.16-.62.75-.74 1.14-.21.78-.15 1.62.14 2.29.06.17.13.33.21.49.09.15.21.22.3.37.07.13.14.44.09.58-.13.26-.33.15-.54.17-.08.4 0 .73.04 1.08 0 .28-.04.8-.3.98-.05-.04-.15-.03-.2-.05-.12.33.18.76-.02 1.14-.28.53-.72.26-1.04.01-.06.5.17 1-.02 1.47-.12.21-.18.28-.48.23-.31-.05-.39-.43-.59-.48-.3-.04-.38.95-.74 1.09-.17.1-.65.06-.78-.04-.33-.25-.12-.37-.58-.06-.53.35-1.26.57-1.46-.12-.04-.25.01-.41-.29-.44-.21-.04-.37.16-.57-.04-.2-.2-.04-.69-.16-.89-.17-.27-.81-.11-1.03-.29-.14-.11-.33-.49-.3-.65.06-.27.27-.39.23-.71-.34-.03-.8.09-.92-.35-.06-.28.26-.54.2-.85-.16-.06-.26-.15-.43-.18-.05-.17.13-.25.22-.4.18-.36-.05-.44-.27-.72-.23-.29-.23-.68.02-1.01.13-.16.58-.41.41-.67-.15-.23-.92.05-.72-.54.13-.36.82-.31.64-.71-.1-.26-.37-.29-.22-.66.09-.22.37-.41.59-.5.09-.18-.04-.29.06-.45.13-.23.59-.23.83-.25.02-.1.02-.22-.03-.31.3-.14.67-.35 1.04-.33.2.02.36.15.59.07.22-.09.31-.35.66-.3.16.01.3.14.38.28.33-.14.63-.37.69-.77.11-.63-.57-.54-.98-.45-.51.09-1.12.45-1.55.11a.761.761 0 0 1-.11-1.03c-.15-.25-.55-.24-.81-.25-.04-.22.24-.74.39-.92.1-.15.29-.2.38-.32.08-.06 0-.21.1-.29.15-.21.45-.34.65-.49.31-.21.45-.37.81-.43.35-.09.62-.21.97-.28.81-.12 1.44-.48 1.33-.86 0 0-2.87-3.55-5.21-4.62 0 0 .42-.61.84-1.05z" style="fill:#2e4993"/><path d="M179.29 110.87c2.51-1.6 4.15-3.41 4.92-5.47.76-2.09 1.13-4.65 1.13-7.73V70.64l-.08-15.03v-3.96c0-3.52-.36-6.2-1.06-8.11-.71-1.92-2.23-3.9-5.05-5.38l27.02-.2c-2.52 1.6-4.16 3.42-4.92 5.49-.76 2.07-1.15 4.64-1.15 7.72v27.17l.09 14.88v3.97c0 3.51.36 6.21 1.06 8.11.7 1.9 2.48 3.6 5.28 5.09l-27.24.48zm27.24-40.8 24.11 31.96c1.84 2.65 3.85 4.66 6.03 6.03 2.94 1.91 6.47 2.87 10.6 2.87h12.72c-3.47-2.13-6.7-4.82-9.64-8.1-.76-.85-3.32-4.07-7.68-9.69l-19.84-24.68 27.25-30.68-24.78.48c.97.64 1.72 1.3 2.28 1.99.54.68.81 1.56.81 2.62 0 1.69-1.09 3.98-3.28 6.83-.89 1.16-2.57 3.13-5.09 5.88l-13.49 14.49zm71.8-32.29c2.5 0 4.58-.12 6.21-.38 1.63-.28 3.1-.99 4.4-2.17l.5 62.02c0 3.5.34 6.21 1.04 8.12.72 1.89 2.44 3.59 5.16 5.08l-27.23.48c2.04-1.27 3.59-2.83 4.62-4.69 1.04-1.86 1.55-5.02 1.55-9.46V51.3c0-3.4-.29-5.83-.83-7.32-.86-2.32-2.66-4.23-5.39-5.72l9.97-.48zm87.15 16.48c-2.42-2.48-5.28-4.37-8.56-5.7a28.581 28.581 0 0 0-10.39-1.95c-7.37 0-13.4 2.39-18.16 7.21-4.72 4.83-7.11 10.92-7.11 18.33 0 8.86 3.06 16.07 9.16 21.61 6.1 5.54 13.55 8.32 22.32 8.32 3.96 0 7.82-.68 11.65-2 3.85-1.38 7.34-3.28 10.47-5.66l-7.42 14.85c-2.92 1.18-6.06 1.99-9.41 2.44-3.31.5-6.85.72-10.56.72-11.84 0-21.71-3.44-29.63-10.35-7.93-6.88-11.87-15.52-11.87-25.83 0-12.78 4.36-22.82 13.03-30.13 7.84-6.53 17.89-9.86 30.1-9.86 5.57 0 11.02.61 16.38 1.88v16.12zm12.59 56.68c2.74-.9 4.6-2.64 5.62-5.25.71-1.85 1.06-4.36 1.06-7.56V49.87c0-2.97-.35-5.31-1.06-7.01-1.02-2.45-2.88-4.05-5.62-4.78l32.1-.29.02-.03.9-.01 1.02.02 1.13-.01v.03l1.47.02c8.22.33 15.01.48 19.93 3.09 5.64 2.97 8.25 8.36 8.25 13.49 0 3.67-1.41 6.77-4.26 9.3-1.84 1.6-4.33 3.07-7.54 4.38l-3.31 1.21.47.08c1.22.31 2.39.66 3.51 1.04l.32.13.19.05h-.06l2.79 1.09c2.06.93 3.93 1.99 5.59 3.22 4.88 3.55 7.31 7.93 7.31 13.12.04 5.19-2.1 11.85-6.43 15.74-3.04 2.52-6.39 4.38-9.45 5.13-4.21 1.58-14.15 1.85-19.93 1.96h-.81l-.87.04c-.56.02-1.04.04-1.47.03-1.77.02-3.69.03-5.76.03h-25.11zm31.96-8.08c.72-.01 1.45-.03 2.17-.05l2.63-.2 2.7-.42c2.54-.54 4.8-1.39 6.78-2.5 4.45-2.52 6.69-6.08 6.69-10.68 0-4.97-3.19-9.55-9.07-12.22-3.75-1.68-7.98-1.97-13.23-2.47l-2.02-.08c-1.03.02-1.6.13-2.07.26l4.33-7.96c.82.18 1.68.39 2.67.33.72.03 1.5-.06 2.29-.18l1.86-.34c.7-.15 1.43-.35 2.18-.59 5.59-2.07 8.85-5.32 8.85-9.59 0-3.54-1.25-6.42-4.58-8.48-1.69-1.04-3.97-1.79-5.96-2.3-2.34-.45-4.73-.64-7.11-.64l-2.79.1c-2.42.12-4.26.29-6.06.46v18.33h-.01v16.31h.01v22.08c1.93.45 4.66.73 7.55.8.72.02 1.45.03 2.19.03z" style="fill:#3b3836"/><path class="fil2" d="M180.41 148.39h1.97v-14.23h-1.97v-.83h6.02v.83h-1.98v8.13l7.76-8.13h-2.01v-.83h5.1v.83h-1.98l-4.98 5.37 6.45 8.87 1.93-.01v.84h-6.16v-.84l1.9.01-5.44-7.5-2.57 2.74v4.75h1.98v.84h-6.02zM203.32 133.33v.83h-2.16l4.03 7.35.12.49h.12l.13-.5 4.25-7.34h-2.16v-.83h5.18v.83h-1.79l-5.13 8.82v5.41h1.97v.84h-6.01v-.84h1.97v-5.18l-5.11-9.05H197v-.83zM220.54 133.33c1.4 0 2.47.25 3.2.74.73.5 1.25 1.08 1.57 1.75.14.29.24.59.29.9l.09.79c0 1.03-.35 1.97-1.04 2.8-.38.45-.8.78-1.29 1.01-.49.23-1.07.35-1.74.35l-.32.02v.12l.51.09c.21.09.37.19.51.31.11.08.24.23.39.44l.84 1.47c.36.69.98 1.59 1.83 2.7.34.43.69.81 1.07 1.15.4.3.87.45 1.43.45h.4v.78l-.09.03-.1.06-.53.17H226.17c-.18-.04-.36-.08-.54-.11-.19-.03-.39-.14-.63-.31-.33-.24-.72-.65-1.14-1.22l-1.64-2.38-1.74-2.53c-.28-.42-.51-.65-.69-.72h-2.32v6.23h1.97v.81h-6.01v-.81h1.97v-14.26h-1.97v-.83h7.11zm-3.07 7.86h2.35c1.09 0 1.97-.36 2.66-1.07.68-.71 1.03-1.52 1.03-2.44 0-.86-.32-1.63-.95-2.32-.62-.69-1.55-1.03-2.78-1.03h-2.31v6.86zM245.03 133.33v4.35h-1.16v-.2c0-.92-.45-1.67-1.36-2.26-.9-.58-1.9-.95-2.99-1.11l-.69-.1h-.67c-1.76 0-3.28.62-4.56 1.86-1.26 1.23-1.9 3.06-1.9 5.48 0 2.39.64 4.14 1.9 5.24 1.28 1.11 2.68 1.75 4.22 1.92h1.2l.47-.07c.74-.09 1.48-.31 2.21-.64a4.97 4.97 0 0 0 1.79-1.33v-3.4h-2.61v-.92h4.54l.02 7.1h-.59l-.83-1.48-.51.34-.5.31c-.45.25-1.09.5-1.92.76-.82.21-1.74.31-2.78.31-2.8 0-4.9-.72-6.28-2.15-1.37-1.42-2.2-3.03-2.49-4.8l-.07-.69v-.69c0-2.6.82-4.56 2.47-5.88.85-.7 1.7-1.23 2.56-1.6.95-.41 1.9-.61 2.84-.61h1.67c.11 0 .25.01.42.04.16.03.35.08.55.12.72.15 1.39.37 2.03.67.64.3 1.18.65 1.6 1.06l.19.48h.14l-.07-.48v-1.63h1.16zM253.12 133.33v.83h-2.17l4.05 7.35.1.49h.12l.14-.5 4.24-7.34h-2.16v-.83h5.19v.83h-1.79l-5.13 8.82v5.41h1.98v.84h-6.02v-.84h1.97v-5.18l-5.11-9.05h-1.73v-.83zM276.26 133.3l-10.12 14.67h9.3v-1.74h1.18v3h-13.74l10.15-14.64h-8.36v1.87h-1.24v-3.16zM288.51 134.16h-1.97v-.83h6.01v.83h-1.97v14.23h1.97v.84h-6.01v-.84h1.97zM298.16 133.33l10.94 11.99.21.48h.12l-.08-.5v-11.14h-1.97v-.83h5v.83h-1.98v15.33h-.12l-12.53-13.62-.33-.65h-.14l.16.67v12.5h1.98v.84h-4.99v-.84h1.97v-14.23h-1.97v-.83zM320.15 133.33v.83h-2.55l4.91 12.03.07.73h.22l.07-.74 4.89-12.02h-2.52v-.83h5.94v.83h-2.27l-6.08 15.07h-1.43l-6.24-15.07h-2.17v-.83zM331.77 133.33h12.24v2.82h-1.17v-1.54h-7.03v5.66h5.87v-1.88h1.16v4.56h-1.16v-1.69h-5.87v6.71h7.46v-2.17h1.17v3.43h-12.67v-.84h1.97v-14.23h-1.97zM357.51 133.33v3.9h-1.05l-.07-.6c-.09-.86-.47-1.5-1.13-1.93-.67-.42-1.41-.64-2.23-.64-1.26 0-2.25.26-3 .76-.75.51-1.13 1.14-1.13 1.88 0 .76.34 1.37 1.01 1.83.66.46 1.38.84 2.15 1.14l.95.36.89.31.78.31.88.35c.7.33 1.34.79 1.94 1.37.6.58.88 1.39.88 2.43 0 1.22-.49 2.32-1.5 3.27-1 .96-2.49 1.44-4.45 1.44h-.77a8.46 8.46 0 0 0-.82-.12c-.29-.03-.7-.16-1.22-.4l-.65-.34-.61-.49-.24-.5h-.11l.11.52v1.05h-1.09v-4.21h1.11l.05.78v.29l.1.28c.19.53.61 1.03 1.28 1.5.7.44 1.65.67 2.86.67 1.06 0 2-.23 2.82-.69.83-.46 1.24-1.2 1.24-2.21 0-.89-.23-1.53-.68-1.93-.45-.39-1.06-.75-1.84-1.06l-.46-.17-.44-.19-.81-.31-.77-.29c-1.17-.44-2.17-.96-3.01-1.57-.41-.28-.72-.66-.93-1.11-.2-.46-.3-1.02-.3-1.69 0-1.27.48-2.3 1.44-3.08.97-.78 2.19-1.17 3.68-1.17.59 0 1.08.02 1.46.08.38.05.75.18 1.11.39l.57.36.62.45.22.4h.14l-.1-.5v-.92h1.12zM363.95 149.23v-.84h1.98v-13.8h-4.9v2.18h-1.19v-3.44h14.24v3.44h-1.2v-2.18h-4.89v13.8h1.98v.84zM386.28 146.28h.14l.04-.43 6.78-12.52h4.03v.83h-1.97v14.23h1.97v.84h-5.96v-.84h1.97v-13.33h-.12l-.21.61-6.82 12.56h-.71l-6.71-12.55-.21-.62h-.12l.06.62v12.71h1.98v.84h-4.94v-.84h1.97v-14.23h-1.97v-.83h4.04l6.71 12.51zM399.16 133.33h12.23v2.82h-1.16v-1.54h-7.03v5.66h5.86v-1.88h1.17v4.56h-1.17v-1.69h-5.86v6.71h7.46v-2.17h1.16v3.43h-12.66v-.84h1.96v-14.23h-1.96zM417.96 133.33l10.94 11.99.21.48h.11l-.08-.5v-11.14h-1.96v-.83h4.99v.83h-1.97v15.33h-.13l-12.52-13.62-.33-.65h-.15l.17.67v12.5h1.97v.84h-4.99v-.84h1.97v-14.23h-1.97v-.83zM437.69 149.23v-.84h1.97v-13.8h-4.9v2.18h-1.19v-3.44h14.24v3.44h-1.19v-2.18h-4.9v13.8h1.98v.84zM183.55 171.24l-1.59 3.92h2.11v.83h-4.92v-.83h1.71l6.42-15.33h.95l6.97 15.33h1.66v.83h-6v-.83l2.15-.01-1.85-3.91h-7.61zm3.87-8.47-.09-.62h-.15l-.09.62-3.14 7.45h6.8l-3.33-7.45zM201.18 160.09l10.94 12 .22.47h.11l-.07-.49v-11.15h-1.97v-.83h4.99v.83h-1.97v15.33h-.12l-12.53-13.62-.33-.64h-.15l.17.67v12.5h1.97v.83h-4.99v-.83h1.97v-14.24h-1.97v-.83zM223.86 160.09c2.82 0 4.93.62 6.31 1.85 1.38 1.24 2.27 2.62 2.65 4.14l.14.97v1.57l-.07.64c-.24 1.68-1.06 3.23-2.46 4.63s-3.6 2.1-6.6 2.1h-6.55v-.83h1.97v-14.24h-1.97v-.83h6.58zm-2.55 14.9h2.51c2.22 0 3.89-.64 5-1.91 1.12-1.28 1.75-2.7 1.91-4.27v-.69c0-1.85-.59-3.49-1.76-4.91-1.17-1.41-2.9-2.12-5.16-2.12h-2.5v13.9zM258.83 164.49h-1.24c0-1.05-.42-1.92-1.26-2.62-.82-.7-1.96-1.04-3.4-1.04-2.05 0-3.68.65-4.93 1.97-1.23 1.31-1.85 3.02-1.85 5.13 0 1.87.6 3.56 1.79 5.05 1.19 1.5 2.87 2.25 5.06 2.25 1.23 0 2.29-.18 3.16-.53.87-.36 1.6-.75 2.17-1.18l.25-.21.25-.22.68.57-.49.52c-.19.19-.45.39-.76.6-.53.35-1.22.67-2.08.97-.85.3-1.92.46-3.21.46-2.97 0-5.24-.81-6.78-2.43-1.55-1.62-2.32-3.51-2.32-5.68 0-2.44.84-4.43 2.55-5.97 1.69-1.54 3.86-2.3 6.48-2.3l1.07.09c.53.05 1.05.18 1.58.41.32.1.65.25.97.45.32.17.6.39.85.66l.17.43h.12l-.07-.43v-1.35h1.24v4.4zM268.88 160.09c1.41 0 2.48.25 3.2.75.74.5 1.25 1.08 1.57 1.74.15.29.24.59.29.91l.09.78c0 1.03-.34 1.97-1.04 2.81-.36.44-.79.78-1.28 1.01-.49.23-1.07.34-1.73.34l-.34.03v.11l.53.1c.19.08.37.18.49.31.11.08.25.22.4.42l.84 1.48c.37.7.97 1.6 1.82 2.71.34.43.69.81 1.07 1.14.4.3.87.45 1.43.45h.4v.79l-.09.02-.1.07-.51.17H274.51c-.17-.05-.35-.09-.53-.12-.18-.03-.4-.13-.64-.31-.32-.24-.7-.65-1.14-1.22l-1.64-2.38-1.73-2.53c-.29-.42-.51-.65-.68-.72h-2.34v6.23h1.97v.81h-6.01v-.81h1.98v-14.26h-1.98v-.83h7.11zm-3.07 7.87h2.35c1.1 0 1.99-.36 2.67-1.07.67-.71 1.02-1.53 1.02-2.46 0-.85-.32-1.62-.94-2.31-.63-.69-1.56-1.03-2.79-1.03h-2.31v6.87zM277.55 160.09h12.24v2.83h-1.16v-1.55h-7.03v5.66h5.86v-1.88h1.17v4.56h-1.17v-1.68h-5.86v6.7h7.46v-2.16h1.17v3.42h-12.68v-.83h1.97v-14.24h-1.97zM299.2 160.09c2.82 0 4.94.62 6.32 1.85 1.39 1.24 2.27 2.62 2.65 4.14l.14.97v1.57l-.07.64c-.24 1.68-1.06 3.23-2.47 4.63-1.4 1.4-3.59 2.1-6.59 2.1h-6.56v-.83h1.97v-14.24h-1.97v-.83h6.58zm-2.54 14.9h2.5c2.23 0 3.9-.64 5.01-1.91 1.11-1.28 1.74-2.7 1.91-4.27v-.69c0-1.85-.6-3.49-1.76-4.91-1.18-1.41-2.89-2.12-5.16-2.12h-2.5v13.9zM312.51 160.92h-1.97v-.83h6.01v.83h-1.96v14.24h1.96v.83h-6.01v-.83h1.97zM322.07 175.99v-.83h1.97v-13.81h-4.9v2.19h-1.18v-3.45h14.23v3.45h-1.18v-2.19h-4.9v13.81h1.97v.83zM341.94 160.09h7.64c1.33 0 2.42.34 3.26 1.01.84.67 1.27 1.45 1.27 2.34v.38c0 .43-.09.84-.28 1.22-.19.39-.47.79-.83 1.2-.66.74-1.49 1.1-2.5 1.1h-.36v.14l.46.03.45.07c1 .14 1.91.53 2.75 1.16.84.64 1.26 1.66 1.26 3.09 0 1.24-.49 2.24-1.47 3.01-.98.77-2.31 1.15-3.97 1.15h-7.68v-.83h1.97v-14.24h-1.97v-.83zm7.32 14.9c1.09 0 1.94-.31 2.59-.94.63-.62.96-1.38.96-2.27 0-.96-.33-1.83-.96-2.6-.65-.77-1.77-1.15-3.37-1.15h-2.5v6.96h3.28zm-.55-7.96h.15c.75 0 1.46-.27 2.12-.81.67-.54 1.02-1.27 1.02-2.19v-.38l-.07-.42c-.15-.51-.46-1-.96-1.48-.49-.44-1.23-.66-2.22-.66h-2.77v5.94h2.73zM360.46 171.24l-1.59 3.92h2.12v.83h-4.93v-.83h1.71l6.42-15.33h.95l6.97 15.33h1.66v.83h-5.99v-.83l2.14-.01-1.86-3.91h-7.6zm3.87-8.47-.09-.62h-.15l-.09.62-3.14 7.45h6.8l-3.33-7.45zM378.09 160.09l10.94 12 .22.47h.11l-.06-.49v-11.15h-1.98v-.83h4.99v.83h-1.97v15.33h-.12l-12.53-13.62-.33-.64h-.15l.17.67v12.5h1.98v.83h-5v-.83h1.98v-14.24h-1.98v-.83zM394.19 175.16h1.97v-14.24h-1.97v-.83h6.01v.83h-1.97v8.14l7.77-8.14h-2.02v-.83h5.08v.83h-1.96l-4.99 5.37 6.46 8.88 1.92-.01v.83h-6.15v-.83h1.89l-5.44-7.5-2.56 2.74v4.76h1.97v.83h-6.01z"/></g></g></svg>