<svg xmlns="http://www.w3.org/2000/svg" width="20" height="20"><path d="M16.667 19.108h-.225a17.4 17.4 0 01-7.567-2.691 17.151 17.151 0 01-5.25-5.25A17.284 17.284 0 01.942 3.583 2.425 2.425 0 011.059 2.5a2.31 2.31 0 01.525-.833A2.5 2.5 0 013.425.833h2.5a2.5 2.5 0 011.667.609 2.5 2.5 0 01.833 1.541c.1.74.282 1.467.542 2.167A2.5 2.5 0 018.4 7.783l-.6.6a12.5 12.5 0 003.825 3.825l.592-.6a2.5 2.5 0 012.642-.566c.696.262 1.42.444 2.158.541a2.5 2.5 0 011.567.834 2.5 2.5 0 01.591 1.666v2.5a2.5 2.5 0 01-.208 1.009 2.432 2.432 0 01-.6.833 2.599 2.599 0 01-.892.525 2.35 2.35 0 01-.808.158zM5.942 2.5h-2.5a.75.75 0 00-.333.075.733.733 0 00-.284.2.941.941 0 00-.175.292.783.783 0 000 .341A15.641 15.641 0 005 10.258a15.557 15.557 0 004.75 4.75 15.833 15.833 0 006.834 2.434c.11.006.22-.008.325-.042a.941.941 0 00.3-.183.833.833 0 00.2-.275.96.96 0 00.066-.342v-2.5a.834.834 0 00-.716-.85 11.581 11.581 0 01-2.5-.625.834.834 0 00-.467-.042.884.884 0 00-.417.225l-1.041 1.042a.833.833 0 01-1 .133 14.167 14.167 0 01-5.317-5.316.833.833 0 01.133-1l1.06-1.059a.833.833 0 00.183-.833 11.54 11.54 0 01-.625-2.5.833.833 0 00-.283-.508.833.833 0 00-.542-.267z"/></svg>