<svg width="24" height="24" fill="none" xmlns="http://www.w3.org/2000/svg"><path clip-rule="evenodd" d="M16.558 3.028a5 5 0 00-5.117 7.03 1 1 0 01-.204 1.12l-6.91 6.91a1.121 1.121 0 001.586 1.585l6.91-6.91a1 1 0 011.12-.204 5 5 0 007.029-5.117L18.4 10.014a2 2 0 01-2.8 0l-.007-.007L13.986 8.4a2 2 0 010-2.8l.007-.007 2.565-2.565zM14.742 1.11a7 7 0 014.14.509 1 1 0 01.295 1.618L15.414 7 17 8.586l3.763-3.763a1 1 0 011.618.295 7 7 0 01-8.606 9.521l-6.448 6.448a3.121 3.121 0 11-4.414-4.414l6.448-6.448a7 7 0 015.38-9.115z"/></svg>