<svg width="24" height="24" fill="none" xmlns="http://www.w3.org/2000/svg"><path clip-rule="evenodd" d="M12 6a4 4 0 100 8 4 4 0 000-8zm-2 4a2 2 0 114 0 2 2 0 01-4 0z"/><path clip-rule="evenodd" d="M11.4 22.8l.6-.8-.6.8a1 1 0 001.2 0L12 22l.6.8h.001l.002-.002.006-.005.02-.015.073-.056c.063-.05.154-.12.268-.212a32.365 32.365 0 003.777-3.596C18.77 16.638 21 13.395 21 10a9 9 0 10-18 0c0 3.395 2.23 6.638 4.253 8.914a32.358 32.358 0 004.045 3.808l.073.056.02.015.006.005.002.002zM7.05 5.05A7 7 0 0119 10c0 2.605-1.77 5.362-3.747 7.586A30.348 30.348 0 0112 20.72a30.35 30.35 0 01-3.253-3.135C6.77 15.363 5 12.606 5 10a7 7 0 012.05-4.95z"/></svg>