<svg width="24" height="24" fill="none" xmlns="http://www.w3.org/2000/svg"><path d="M15.707 10.707a1 1 0 00-1.414-1.414L11 12.586l-1.293-1.293a1 1 0 00-1.414 1.414l2 2a1 1 0 001.414 0l4-4z"/><path clip-rule="evenodd" d="M12 2h-.1c-.03 0-.06.001-.09.004-1.222.05-2.46.592-3.277 1.603A4.6 4.6 0 003.52 8.55C2.538 9.386 1.9 10.68 1.9 12c0 1.315.634 2.605 1.611 3.443-.128 1.316.303 2.684 1.4 3.683.897.885 2.22 1.362 3.516 1.322C9.287 21.453 10.613 22 11.9 22c1.284 0 2.608-.545 3.468-1.609 1.309.12 2.665-.313 3.658-1.403.891-.902 1.37-2.163 1.322-3.515C21.353 14.614 21.9 13.288 21.9 12c0-1.284-.545-2.609-1.609-3.469.12-1.309-.313-2.666-1.405-3.659a4.7 4.7 0 00-3.524-1.333c-.818-.947-2.051-1.485-3.273-1.535A1.011 1.011 0 0012 2zM9.878 5.179c.392-.72 1.201-1.162 2.072-1.179.882.017 1.706.47 2.093 1.114a1 1 0 001.046.468 2.7 2.7 0 012.442.761c.695.626.92 1.532.699 2.414a1 1 0 00.491 1.12c.733.4 1.179 1.234 1.179 2.123 0 .9-.457 1.748-1.114 2.143a1 1 0 00-.474 1.01c.155 1.006-.16 1.88-.72 2.44a1 1 0 00-.035.038c-.626.695-1.532.92-2.414.699a1 1 0 00-1.12.491c-.4.733-1.234 1.179-2.123 1.179-.9 0-1.748-.457-2.143-1.114a1 1 0 00-1.021-.472c-.904.15-1.873-.165-2.429-.721a.972.972 0 00-.038-.036c-.695-.626-.92-1.532-.699-2.415a1 1 0 00-.456-1.1C4.41 13.72 3.9 12.842 3.9 12c0-.843.51-1.72 1.214-2.143a1 1 0 00.46-1.083A2.6 2.6 0 018.752 5.67a1 1 0 001.126-.49z"/></svg>