<svg width="24" height="24" fill="none" xmlns="http://www.w3.org/2000/svg"><path clip-rule="evenodd" d="M6.793 1.793C7.233 1.353 7.875 1 8.6 1h6.9a1 1 0 01.707.293l4.5 4.5A1 1 0 0121 6.5v9.9c0 .725-.352 1.367-.793 1.807-.44.44-1.082.793-1.807.793H8.6c-.725 0-1.367-.352-1.807-.793C6.353 17.767 6 17.125 6 16.4V3.6c0-.725.353-1.367.793-1.807zM18.086 6L16 3.914V6h2.086zM14 3v4a1 1 0 001 1h4v8.4c0 .075-.047.233-.207.393-.16.16-.318.207-.393.207H8.6c-.075 0-.233-.047-.393-.207-.16-.16-.207-.318-.207-.393V3.6c0-.075.047-.233.207-.393.16-.16.318-.207.393-.207H14z"/><path d="M3 6.6a1 1 0 011 1v12.8c0 .075.047.233.207.393.16.16.318.207.393.207h9.8a1 1 0 110 2H4.6c-.725 0-1.367-.352-1.807-.793C2.353 21.767 2 21.125 2 20.4V7.6a1 1 0 011-1z"/></svg>