<svg width="24" height="24" fill="none" xmlns="http://www.w3.org/2000/svg"><path clip-rule="evenodd" d="M12 8a4 4 0 100 8 4 4 0 000-8zm-2 4a2 2 0 114 0 2 2 0 01-4 0z"/><path clip-rule="evenodd" d="M22.919 12.395a1.004 1.004 0 000-.79l-.002-.003-.003-.007-.01-.021a8.678 8.678 0 00-.153-.322c-.105-.21-.26-.506-.47-.857a15.391 15.391 0 00-1.923-2.575C18.615 5.943 15.868 4 12 4 8.132 4 5.385 5.943 3.642 7.82a15.386 15.386 0 00-1.923 2.575 13.444 13.444 0 00-.591 1.107l-.033.072-.01.02-.002.008-.001.002v.001a1.002 1.002 0 00-.001.789v.002l.002.002.003.007.01.021.032.072a13.444 13.444 0 00.591 1.107 15.387 15.387 0 001.923 2.575C5.385 18.057 8.132 20 12 20c3.868 0 6.615-1.943 8.358-3.82a15.392 15.392 0 001.923-2.575 13.466 13.466 0 00.591-1.107l.033-.072.01-.02.002-.008.002-.003zm-19.482.187A11.94 11.94 0 013.112 12a13.388 13.388 0 011.996-2.82C6.615 7.557 8.868 6 12 6c3.132 0 5.385 1.557 6.892 3.18A13.386 13.386 0 0120.888 12a13.386 13.386 0 01-1.996 2.82C17.385 16.442 15.132 18 12 18c-3.132 0-5.385-1.557-6.892-3.18a13.388 13.388 0 01-1.67-2.238zM22 12c.92-.394.919-.394.919-.395L22 12zm.919.395L22 12l.919.395zM2 12l-.919-.395L2 12zm-.92.394L2 12l-.918.393z"/></svg>