<svg width="24" height="24" fill="none" xmlns="http://www.w3.org/2000/svg"><path d="M10 10a1 1 0 011 1v6a1 1 0 11-2 0v-6a1 1 0 011-1zm5 1a1 1 0 10-2 0v6a1 1 0 102 0v-6z"/><path clip-rule="evenodd" d="M7 5V4c0-.825.403-1.567.918-2.082C8.433 1.403 9.175 1 10 1h4c.825 0 1.567.403 2.082.918C16.597 2.433 17 3.175 17 4v1h4a1 1 0 110 2h-1v13c0 .825-.402 1.567-.918 2.082-.515.515-1.257.918-2.082.918H7c-.825 0-1.567-.402-2.082-.918C4.403 21.567 4 20.825 4 20V7H3a1 1 0 010-2h4zm2-1c0-.175.097-.433.332-.668C9.567 3.097 9.825 3 10 3h4c.175 0 .433.097.668.332.235.235.332.493.332.668v1H9V4zM6 7v13c0 .175.097.433.332.668.235.235.493.332.668.332h10c.175 0 .433-.098.668-.332.235-.235.332-.493.332-.668V7H6z"/></svg>