<svg width="66" height="82" xmlns="http://www.w3.org/2000/svg"><path fill-rule="evenodd" clip-rule="evenodd" d="M32.03.73a6.712 6.712 0 011.94 0c.737.107 1.425.37 2.044.605l.156.06 20.106 7.618.441.167c2.372.896 4.278 1.616 5.737 2.915a10.579 10.579 0 012.863 4.173c.688 1.826.686 3.869.683 6.431v18.593c0 10.406-5.604 19.145-11.777 25.642-6.204 6.53-13.315 11.154-17.082 13.375l-.145.085c-.7.415-1.504.891-2.574 1.123-.874.19-1.97.19-2.844 0-1.07-.232-1.874-.708-2.574-1.123a41.108 41.108 0 00-.145-.085c-3.768-2.221-10.878-6.844-17.082-13.375C5.604 60.437 0 51.698 0 41.292V22.699c-.003-2.562-.005-4.605.683-6.431a10.58 10.58 0 012.863-4.173c1.459-1.3 3.365-2.02 5.737-2.915l.44-.167L29.83 1.394l.156-.059C30.605 1.1 31.293.837 32.03.73zm.874 5.936a1.893 1.893 0 00-.14.042c-.171.057-.395.14-.808.297L11.85 14.624c-3.037 1.15-3.793 1.488-4.314 1.952a4.58 4.58 0 00-1.238 1.807C6.046 19.05 6 19.899 6 23.172v18.12c0 8.194 4.434 15.518 10.127 21.51 5.66 5.959 12.241 10.253 15.779 12.338.449.264.651.382.809.46a.707.707 0 00.12.05l.028.003a1.514 1.514 0 00.302-.003.689.689 0 00.12-.05c.158-.078.36-.195.809-.46 3.538-2.085 10.118-6.38 15.78-12.338C55.564 56.81 60 49.486 60 41.292v-18.12c0-3.273-.047-4.122-.298-4.79a4.58 4.58 0 00-1.238-1.806c-.521-.464-1.277-.802-4.313-1.952L34.044 7.005a24.84 24.84 0 00-.808-.297 1.893 1.893 0 00-.14-.042.712.712 0 00-.192 0zm.186-.002zm.07 68.987l-.009.002h.003l.007-.002zm-.32 0l.005.002h.004l-.01-.002zm.066-68.986zm15.33 21.128a3 3 0 01.021 4.242L31.382 49.087a3 3 0 01-4.264 0l-7.5-7.579a3 3 0 014.264-4.22l5.368 5.423 14.743-14.896a3 3 0 014.242-.022z"/></svg>