<svg width="77" height="76" xmlns="http://www.w3.org/2000/svg"><path fill-rule="evenodd" clip-rule="evenodd" d="M21.798.66h.913a3 3 0 010 6h-.788c-3.36 0-5.705.001-7.53.146-1.793.143-2.825.409-3.604.795a8.669 8.669 0 00-3.843 3.73c-.382.729-.65 1.7-.795 3.426C6.002 16.52 6 18.788 6 22.06v.767a3 3 0 11-6 0v-.898c0-3.109 0-5.63.172-7.673.177-2.11.553-3.978 1.46-5.71a14.668 14.668 0 016.494-6.32c1.75-.868 3.64-1.229 5.791-1.4C16.01.66 18.592.66 21.797.66zm40.77 6.146c-1.826-.145-4.17-.147-7.53-.147h-.789a3 3 0 010-6h.914c3.206 0 5.789 0 7.88.166 2.151.171 4.041.532 5.792 1.4a14.669 14.669 0 016.494 6.32c.907 1.732 1.283 3.6 1.46 5.71.172 2.044.172 4.564.172 7.673v.898a3 3 0 01-6 0v-.767c0-3.271-.003-5.539-.151-7.302-.145-1.725-.414-2.697-.796-3.426a8.67 8.67 0 00-3.843-3.73c-.779-.386-1.81-.652-3.603-.795zM0 38.16a3 3 0 013-3h.04a3 3 0 110 6H3a3 3 0 01-3-3zm17.74 0a3 3 0 013-3h.04a3 3 0 010 6h-.04a3 3 0 01-3-3zm17.74 0a3 3 0 013-3h.04a3 3 0 110 6h-.04a3 3 0 01-3-3zm17.74 0a3 3 0 013-3h.04a3 3 0 010 6h-.04a3 3 0 01-3-3zm17.74 0a3 3 0 013-3H74a3 3 0 110 6h-.04a3 3 0 01-3-3zM3 50.493a3 3 0 013 3v.766c0 3.271.002 5.54.15 7.302.146 1.725.414 2.697.796 3.427a8.669 8.669 0 003.843 3.73c.78.386 1.81.651 3.604.794 1.825.145 4.17.147 7.53.147h.788a3 3 0 010 6h-.913c-3.206 0-5.79 0-7.88-.166-2.152-.17-4.041-.532-5.792-1.4a14.668 14.668 0 01-6.494-6.32c-.907-1.731-1.283-3.6-1.46-5.71C0 60.02 0 57.5 0 54.39v-.898a3 3 0 013-3zm70.96 0a3 3 0 013 3v.897c0 3.11 0 5.63-.171 7.673-.177 2.11-.553 3.979-1.46 5.71a14.668 14.668 0 01-6.494 6.32c-1.75.868-3.64 1.23-5.792 1.4-2.091.166-4.675.166-7.88.166h-.914a3 3 0 010-6h.789c3.36 0 5.704-.002 7.53-.147 1.793-.142 2.824-.408 3.603-.794a8.67 8.67 0 003.843-3.73c.382-.73.651-1.702.796-3.427.148-1.763.15-4.03.15-7.302v-.767a3 3 0 013-3z"/></svg>