<svg width="67" height="82" xmlns="http://www.w3.org/2000/svg"><path fill-rule="evenodd" clip-rule="evenodd" d="M32.528.729a6.835 6.835 0 011.944 0c.739.106 1.43.365 2.06.6l.158.06 20.44 7.618.446.166c2.414.897 4.34 1.613 5.816 2.905a10.579 10.579 0 012.91 4.175c.702 1.833.7 3.884.697 6.444v18.594c0 10.424-5.706 19.168-11.977 25.66C48.72 73.48 41.493 78.1 37.666 80.32a46.74 46.74 0 00-.146.084c-.714.416-1.521.886-2.595 1.115a7.33 7.33 0 01-2.85 0c-1.074-.229-1.881-.699-2.595-1.115l-.146-.084c-3.827-2.22-11.053-6.84-17.357-13.368C5.707 60.46 0 51.716 0 41.292V22.696c-.003-2.559-.005-4.61.697-6.443a10.578 10.578 0 012.91-4.175c1.475-1.292 3.402-2.008 5.816-2.905l.446-.166L30.31 1.39l.157-.06c.63-.235 1.322-.494 2.06-.6zm1.087 5.938a.836.836 0 00-.23 0 1.843 1.843 0 00-.155.046c-.176.057-.406.142-.824.298L11.964 14.63c-3.084 1.149-3.866 1.49-4.404 1.962a4.578 4.578 0 00-1.26 1.806c-.252.66-.3 1.497-.3 4.774v18.12c0 8.176 4.5 15.494 10.292 21.492 5.758 5.962 12.452 10.258 16.052 12.345.455.264.664.383.826.462a.667.667 0 00.145.058 1.66 1.66 0 00.37 0 .667.667 0 00.145-.058c.162-.08.37-.198.826-.462 3.6-2.087 10.294-6.383 16.052-12.345C56.5 56.786 61 49.468 61 41.292v-18.12c0-3.277-.048-4.115-.3-4.774a4.578 4.578 0 00-1.26-1.806c-.538-.471-1.32-.813-4.404-1.962L34.594 7.01a23.806 23.806 0 00-.824-.297 1.83 1.83 0 00-.155-.046zm-.005 0zm-.22 0zm.11 18.364a3 3 0 013 3v8.367h8.438a3 3 0 110 6H36.5v8.367a3 3 0 01-6 0v-8.367h-8.438a3 3 0 010-6H30.5v-8.367a3 3 0 013-3z"/></svg>