<svg width="24" height="24" fill="none" xmlns="http://www.w3.org/2000/svg"><path fill-rule="evenodd" clip-rule="evenodd" d="M12 24C5.372 24 0 18.628 0 12S5.372 0 12 0s12 5.372 12 12-5.372 12-12 12zm1.441-13.655V8.57h4.061V5.864H6.446V8.57h4.06v1.774c-3.3.152-5.781.806-5.781 1.588 0 .784 2.482 1.437 5.782 1.589v5.686h2.934V13.52c3.295-.151 5.771-.804 5.771-1.587 0-.782-2.476-1.435-5.77-1.587zm0 2.692v-.001c-.082.006-.507.031-1.456.031-.758 0-1.29-.022-1.478-.031v.002c-2.916-.128-5.093-.636-5.093-1.244 0-.606 2.177-1.114 5.093-1.245v1.984c.19.013.736.045 1.49.045.906 0 1.36-.037 1.444-.045v-1.982c2.91.13 5.082.637 5.082 1.243 0 .608-2.171 1.114-5.082 1.243z" fill="#64D5B3"/></svg>