<svg width="24" height="24" fill="none" xmlns="http://www.w3.org/2000/svg"><path d="M23.641 14.902c-1.603 6.432-8.12 10.342-14.543 8.739C2.666 22.037-1.244 15.52.36 9.098 1.963 2.666 8.47-1.244 14.902.36c6.423 1.593 10.342 8.11 8.739 14.542z" fill="#F9AA4B"/><path d="M17.713 10.505c.235-1.594-.975-2.457-2.643-3.028l.543-2.166-1.312-.328-.525 2.11a35.05 35.05 0 00-1.06-.245l.526-2.118-1.313-.328-.534 2.156a57.961 57.961 0 01-.844-.197v-.01l-1.819-.45-.347 1.407s.975.225.957.234c.534.131.628.488.609.769l-.619 2.466c.038.009.084.018.14.046-.046-.009-.093-.018-.14-.037l-.862 3.45c-.066.16-.235.403-.6.31.009.018-.957-.235-.957-.235l-.656 1.51 1.716.43c.318.085.628.16.937.244l-.543 2.185 1.312.328.544-2.166c.356.094.712.188 1.05.272l-.535 2.156 1.313.328.544-2.184c2.25.422 3.937.253 4.64-1.781.572-1.631-.028-2.578-1.21-3.197.873-.197 1.52-.769 1.688-1.931zm-3.009 4.218c-.403 1.632-3.16.75-4.05.525l.722-2.896c.89.224 3.76.665 3.328 2.371zm.412-4.247c-.374 1.491-2.662.732-3.403.544l.657-2.625c.74.188 3.13.535 2.747 2.082z" fill="#fff"/></svg>